<?xml version="1.0" encoding="iso-8859-1"?>
<!-- Generator: Adobe Illustrator 17.1.0, SVG Export Plug-In . SVG Version: 6.00 Build 0)  -->
<!DOCTYPE svg PUBLIC "-//W3C//DTD SVG 1.1//EN" "http://www.w3.org/Graphics/SVG/1.1/DTD/svg11.dtd">
<svg version="1.1" id="Capa_1" xmlns="http://www.w3.org/2000/svg" xmlns:xlink="http://www.w3.org/1999/xlink" x="0px" y="0px"
	 viewBox="0 0 197.728 197.728" style="enable-background:new 0 0 197.728 197.728;" xml:space="preserve">
<path d="M63.265,50.018L98.84,25.145l34.979,24.873H63.265z M194.281,67.534l-77.64,118.089c-3.942,5.997-10.588,9.577-17.777,9.577
	s-13.835-3.58-17.777-9.577L3.447,67.534c-5.434-8.265-4.349-19.391,2.58-26.457L37.573,8.906c3.976-4.053,9.515-6.378,15.199-6.378
	h92.184c5.684,0,11.224,2.325,15.198,6.378l31.548,32.173C198.629,48.144,199.714,59.27,194.281,67.534z M188.271,55.018
	c0-1.353-0.542-2.576-1.415-3.476c-0.084-0.195-0.155-0.395-0.25-0.587c0.078,0.18,0.143,0.363,0.216,0.545
	c-0.906-0.914-2.161-1.482-3.55-1.482h-25.958l8.471-20.462c1.056-2.552-0.156-5.476-2.707-6.532
	c-2.552-1.059-5.477,0.156-6.532,2.707l-9.012,21.77l-45.772-32.547c-1.723-1.226-4.03-1.234-5.763-0.023L50.147,46.988
	l-8.265-21.705c-0.983-2.581-3.872-3.875-6.452-2.894c-2.581,0.983-3.876,3.872-2.894,6.452l8.064,21.177H14.457
	c-1.389,0-2.645,0.568-3.551,1.483c0.073-0.181,0.138-0.365,0.215-0.544c-0.096,0.191-0.166,0.391-0.25,0.586
	c-0.873,0.9-1.415,2.123-1.415,3.475c0,2.761,2.239,5,5,5h30.032l48.889,122.55c0.005,0.013,0.013,0.025,0.018,0.038
	c0.023,0.057,0.056,0.109,0.081,0.165c0.098,0.217,0.207,0.426,0.332,0.622c0.049,0.077,0.103,0.148,0.155,0.222
	c0.124,0.174,0.257,0.338,0.4,0.492c0.061,0.066,0.121,0.133,0.187,0.196c0.193,0.187,0.398,0.359,0.616,0.511
	c0.024,0.017,0.044,0.037,0.068,0.053c0.252,0.169,0.52,0.306,0.797,0.427c0.03,0.013,0.054,0.032,0.084,0.045
	c0.049,0.02,0.1,0.026,0.149,0.045c0.209,0.079,0.421,0.143,0.639,0.193c0.085,0.02,0.168,0.042,0.253,0.057
	c0.28,0.049,0.563,0.082,0.851,0.083c0.004,0,0.008,0.001,0.011,0.001c0.001,0,0.001,0,0.002,0l0.002,0
	c0.004,0,0.008-0.001,0.012-0.001c0.28-0.001,0.557-0.031,0.83-0.079c0.083-0.014,0.165-0.037,0.248-0.055
	c0.208-0.047,0.412-0.106,0.613-0.179c0.049-0.018,0.099-0.024,0.148-0.043c0.034-0.013,0.061-0.035,0.095-0.049
	c0.157-0.067,0.308-0.144,0.458-0.226c0.617-0.088,1.22-0.221,1.805-0.4c-0.474,0.082-0.954,0.14-1.436,0.189
	c0.235-0.156,0.453-0.338,0.66-0.534c0.066-0.063,0.126-0.129,0.188-0.194c0.144-0.152,0.277-0.313,0.402-0.484
	c0.055-0.075,0.11-0.148,0.161-0.225c0.125-0.192,0.234-0.396,0.334-0.609c0.027-0.058,0.061-0.112,0.086-0.17
	c0.005-0.013,0.013-0.023,0.018-0.036l50.538-122.603h30.09C186.032,60.018,188.271,57.779,188.271,55.018z M98.097,167.412
	l44.268-107.394H55.254L98.097,167.412z"/>
<g>
</g>
<g>
</g>
<g>
</g>
<g>
</g>
<g>
</g>
<g>
</g>
<g>
</g>
<g>
</g>
<g>
</g>
<g>
</g>
<g>
</g>
<g>
</g>
<g>
</g>
<g>
</g>
<g>
</g>
</svg>
