<?xml version="1.0" encoding="iso-8859-1"?>
<!-- Generator: Adobe Illustrator 19.0.0, SVG Export Plug-In . SVG Version: 6.00 Build 0)  -->
<svg version="1.1" id="Layer_1" xmlns="http://www.w3.org/2000/svg" xmlns:xlink="http://www.w3.org/1999/xlink" x="0px" y="0px"
	 viewBox="0 0 512.015 512.015" style="enable-background:new 0 0 512.015 512.015;" xml:space="preserve">
<g>
	<g>
		<g>
			<path fill="#1446a0" d="M341.128,352c0-41.173,33.493-74.667,74.667-74.667c5.888,0,10.667-4.779,10.667-10.667v-256
				C426.461,4.779,421.682,0,415.794,0H181.128c-1.387,0-2.773,0.277-4.075,0.811c-1.323,0.533-2.496,1.323-3.477,2.325
				L45.597,131.115c-0.981,0.981-1.771,2.176-2.325,3.477c-0.533,1.301-0.811,2.688-0.811,4.075v320
				c0,5.888,4.779,10.667,10.667,10.667h277.333c4.224,0,8.021-2.475,9.749-6.336l13.973-31.467c0.32-0.725,0.555-1.472,0.704-2.24
				l4.544-22.741c0.619-3.051-0.149-6.229-2.069-8.683C346.738,384.363,341.128,368.491,341.128,352z M245.128,128h128
				c5.888,0,10.667,4.779,10.667,10.667s-4.779,10.667-10.667,10.667h-128c-5.888,0-10.667-4.779-10.667-10.667
				S239.24,128,245.128,128z M170.461,36.416V128H78.877L170.461,36.416z M181.128,405.333H95.794
				c-5.888,0-10.667-4.779-10.667-10.667S89.906,384,95.794,384h85.333c5.888,0,10.667,4.779,10.667,10.667
				S187.016,405.333,181.128,405.333z M287.794,320h-192c-5.888,0-10.667-4.779-10.667-10.667s4.779-10.667,10.667-10.667h192
				c5.888,0,10.667,4.779,10.667,10.667S293.682,320,287.794,320z M95.794,234.667c-5.888,0-10.667-4.779-10.667-10.667
				s4.779-10.667,10.667-10.667h277.333c5.888,0,10.667,4.779,10.667,10.667s-4.779,10.667-10.667,10.667H95.794z"/>
			<path fill="#1446a0" d="M468.36,496.427l-13.312-66.517c-0.597-3.072-2.517-5.696-5.227-7.211c-2.731-1.515-5.973-1.813-8.875-0.725
				c-17.515,6.336-32.789,6.336-50.304,0c-2.901-1.088-6.144-0.789-8.875,0.725c-2.688,1.515-4.608,4.139-5.227,7.211
				l-13.867,69.355c-0.811,3.989,0.747,8.085,3.989,10.56c3.243,2.453,7.616,2.901,11.243,1.067l37.888-18.965l37.888,18.965
				c1.515,0.725,3.157,1.109,4.779,1.109h0.213c5.504-0.064,10.88-4.715,10.88-10.667
				C469.554,499.563,469.106,497.899,468.36,496.427z"/>
			<path fill="#1446a0" d="M415.794,405.333c29.461,0,53.333-23.872,53.333-53.333s-23.872-53.333-53.333-53.333S362.461,322.539,362.461,352
				C362.461,381.44,386.333,405.333,415.794,405.333z"/>
		</g>
	</g>
</g>
<g>
</g>
<g>
</g>
<g>
</g>
<g>
</g>
<g>
</g>
<g>
</g>
<g>
</g>
<g>
</g>
<g>
</g>
<g>
</g>
<g>
</g>
<g>
</g>
<g>
</g>
<g>
</g>
<g>
</g>
</svg>
