<?xml version="1.0" encoding="iso-8859-1"?>
<!-- Generator: Adobe Illustrator 19.1.0, SVG Export Plug-In . SVG Version: 6.00 Build 0)  -->
<svg version="1.1" id="Capa_1" xmlns="http://www.w3.org/2000/svg" xmlns:xlink="http://www.w3.org/1999/xlink" x="0px" y="0px"
	 viewBox="0 0 47.516 47.516" style="enable-background:new 0 0 47.516 47.516;" xml:space="preserve">
<path d="M34.579,3.086c-4.382,0-8.453,2.253-10.82,5.867c-2.368-3.614-6.439-5.867-10.821-5.867C5.804,3.086,0,8.89,0,16.023
	c0,15.254,22.328,27.629,23.279,28.149l0.472,0.258l0.475-0.252c0.951-0.503,23.29-12.508,23.29-28.155
	C47.516,8.89,41.712,3.086,34.579,3.086z M23.766,42.148C20.544,40.276,2,28.936,2,16.023C2,9.993,6.907,5.086,12.938,5.086
	c4.232,0,8.124,2.489,9.914,6.341l0.907,1.952l0.907-1.952c1.79-3.852,5.681-6.341,9.914-6.341c6.031,0,10.938,4.907,10.938,10.938
	C45.516,29.275,26.994,40.324,23.766,42.148z"/>
<g>
</g>
<g>
</g>
<g>
</g>
<g>
</g>
<g>
</g>
<g>
</g>
<g>
</g>
<g>
</g>
<g>
</g>
<g>
</g>
<g>
</g>
<g>
</g>
<g>
</g>
<g>
</g>
<g>
</g>
</svg>
