<?xml version="1.0" encoding="iso-8859-1"?>
<!-- Generator: Adobe Illustrator 18.1.1, SVG Export Plug-In . SVG Version: 6.00 Build 0)  -->
<svg version="1.1" id="Capa_1" xmlns="http://www.w3.org/2000/svg" xmlns:xlink="http://www.w3.org/1999/xlink" x="0px" y="0px"
	 viewBox="0 0 346.839 346.839" style="enable-background:new 0 0 346.839 346.839;fill:#4477ed;" xml:space="preserve">
<g>
	<g id="Layer_5_12_">
		<g>
			<path d="M221.713,49.045C221.07,57.27,213.795,64,205.545,64h-64c-8.25,0-15.526-6.73-16.168-14.955l-2.663-34.091
				C122.071,6.729,128.295,0,136.545,0h74c8.25,0,14.474,6.73,13.832,14.954L221.713,49.045z"/>
			<path d="M257.345,258.123L223.494,96.486c-1.691-8.075-9.825-14.682-18.075-14.682h-64c-8.25,0-16.384,6.607-18.075,14.682
				L89.493,258.123c-1.691,8.075,1.894,19.25,7.967,24.834l64.917,59.693c6.073,5.585,16.01,5.585,22.083,0l64.917-59.693
				C255.451,277.374,259.036,266.198,257.345,258.123z M127.877,170.2c0.782-3.973,2.468-11.895,3.316-15.854
				c0.261-1.221,0.991-1.653,0.991-1.653l73.1-34.284c1.264-0.596,1.624,0.295,1.788,0.772c0.22,0.636,0.4,1.282,0.537,1.939
				c0,0,1.638,7.717,2.154,10.296c0.326,1.626-0.723,1.945-0.723,1.945l-80.469,38.125
				C128.572,171.486,127.486,172.187,127.877,170.2z M112.174,245.142c0.757-3.895,2.447-11.767,3.129-14.941
				c0.433-2.014,2.089-2.694,2.089-2.694l99.647-48.114c0,0,2.425-1.435,2.965,0.918c0.569,2.481,1.92,8.778,2.439,11.619
				c0.271,1.487-1.195,2.183-1.195,2.183L113.304,246.55C113.304,246.549,111.757,247.292,112.174,245.142z M234.046,254.455
				l-92.136,44.203c0,0-1.737,0.842-2.581,0.128c-2.361-1.999-6.785-5.919-9.092-8.393c-1.689-1.81,0.416-2.776,0.416-2.776
				l99.621-48.107c0,0,1.9-1.009,2.311,0.884c0.556,2.565,1.937,9.08,2.506,11.964C235.34,253.625,234.046,254.455,234.046,254.455z
				"/>
		</g>
	</g>
</g>
<g>
</g>
<g>
</g>
<g>
</g>
<g>
</g>
<g>
</g>
<g>
</g>
<g>
</g>
<g>
</g>
<g>
</g>
<g>
</g>
<g>
</g>
<g>
</g>
<g>
</g>
<g>
</g>
<g>
</g>
</svg>
