<?xml version="1.0" standalone="no"?>
<!DOCTYPE svg PUBLIC "-//W3C//DTD SVG 1.1//EN" "http://www.w3.org/Graphics/SVG/1.1/DTD/svg11.dtd" >
<svg xmlns="http://www.w3.org/2000/svg">
<metadata>
Created by FontForge 20120731 at Mon Aug  8 12:46:30 2016
 By admin
</metadata>
<defs>
<font id="iconfont" horiz-adv-x="1024" >
  <font-face 
    font-family="iconfont"
    font-weight="500"
    font-stretch="normal"
    units-per-em="1024"
    panose-1="2 0 6 3 0 0 0 0 0 0"
    ascent="896"
    descent="-128"
    x-height="792"
    bbox="-2 -161 1031 897"
    underline-thickness="50"
    underline-position="-100"
    unicode-range="U+0078-E674"
  />
<missing-glyph horiz-adv-x="374" 
d="M34 0v682h272v-682h-272zM68 34h204v614h-204v-614z" />
    <glyph glyph-name=".notdef" horiz-adv-x="374" 
d="M34 0v682h272v-682h-272zM68 34h204v614h-204v-614z" />
    <glyph glyph-name=".null" horiz-adv-x="0" 
 />
    <glyph glyph-name="nonmarkingreturn" horiz-adv-x="341" 
 />
    <glyph glyph-name="x" unicode="x" horiz-adv-x="1001" 
d="M281 543q-27 -1 -53 -1h-83q-18 0 -36.5 -6t-32.5 -18.5t-23 -32t-9 -45.5v-76h912v41q0 16 -0.5 30t-0.5 18q0 13 -5 29t-17 29.5t-31.5 22.5t-49.5 9h-133v-97h-438v97zM955 310v-52q0 -23 0.5 -52t0.5 -58t-10.5 -47.5t-26 -30t-33 -16t-31.5 -4.5q-14 -1 -29.5 -0.5
t-29.5 0.5h-32l-45 128h-439l-44 -128h-29h-34q-20 0 -45 1q-25 0 -41 9.5t-25.5 23t-13.5 29.5t-4 30v167h911zM163 247q-12 0 -21 -8.5t-9 -21.5t9 -21.5t21 -8.5q13 0 22 8.5t9 21.5t-9 21.5t-22 8.5zM316 123q-8 -26 -14 -48q-5 -19 -10.5 -37t-7.5 -25t-3 -15t1 -14.5
t9.5 -10.5t21.5 -4h37h67h81h80h64h36q23 0 34 12t2 38q-5 13 -9.5 30.5t-9.5 34.5q-5 19 -11 39h-368zM336 498v228q0 11 2.5 23t10 21.5t20.5 15.5t34 6h188q31 0 51.5 -14.5t20.5 -52.5v-227h-327z" />
    <glyph glyph-name="uniE600" unicode="&#xe600;" 
d="M511.5 832q-91.5 0 -174 -35.5t-142.5 -95.5t-95.5 -143t-35.5 -174t35.5 -174t95.5 -143t142.5 -95t174 -35t174 35t142.5 95t95.5 143t35.5 174t-35.5 174t-95.5 143t-142.5 95.5t-174 35.5zM761 389v-10v-4q-2 -22 -18.5 -37.5t-38.5 -15.5h-70h-60v-130v-57h-58h-10
h-3q-23 1 -38.5 17.5t-15.5 39.5v70v60h-130h-57v57v10v4q1 22 17.5 37.5t39.5 15.5h70h60v131v57h57h10h4q23 -2 38.5 -18.5t15.5 -38.5v-70v-61h130h57v-57z" />
    <glyph glyph-name="uniE601" unicode="&#xe601;" 
d="M502 134l-6 4l-425 425q-6 7 -6 16t6 16l68 67q6 7 15.5 7t15.5 -7l16 -16l155 -154l155 -155q6 -7 15.5 -7t16.5 7l309 309l16 16q7 7 16 7t16 -7l16 -16l35 -35l17 -16q6 -7 6 -16t-6 -16l-17 -16l-341 -341l-67 -68q-1 -1 -2 -1q-11 -9 -24 -3z" />
    <glyph glyph-name="uniE602" unicode="&#xe602;" 
d="M141 319q-23 -56 -26.5 -102t15.5 -56q13 -7 32 6.5t38 42.5q15 -62 71 -109q-29 -10 -45.5 -26.5t-16.5 -35.5q0 -31 43.5 -53.5t104.5 -22.5q55 0 96.5 18.5t49.5 45.5h9h9q8 -27 49.5 -45.5t96.5 -18.5q62 0 105 22.5t43 53.5q0 19 -16.5 35.5t-45.5 26.5
q56 48 71 109q20 -29 39 -42.5t31 -6.5q19 10 16 56t-27 102q-18 43 -41 73t-43 37q1 6 1 11q0 34 -17 60v4q0 16 -7 29q-5 117 -76.5 194t-187.5 77t-187.5 -77t-76.5 -194q-7 -13 -7 -29v-4q-17 -26 -17 -60q0 -6 1 -11q-19 -7 -42.5 -37t-41.5 -73z" />
    <glyph glyph-name="uniE603" unicode="&#xe603;" 
d="M778 394q-1 4 -4 6l-425 425q-7 7 -16 7t-16 -7l-67 -67q-7 -7 -7 -16.5t7 -15.5l16 -16l155 -155l154 -155q7 -6 7 -15.5t-7 -16.5l-309 -309l-16 -16q-7 -7 -7 -16t7 -16l16 -16l35 -35l16 -16q7 -7 16 -7t16 7l16 16l341 341l68 67q1 1 1 2q9 11 3 24z" />
    <glyph glyph-name="uniE604" unicode="&#xe604;" 
d="M956 585l-103 103l-448 -448l-241 241l-103 -103l241 -241l103 -103v0l103 103z" />
    <glyph glyph-name="uniE605" unicode="&#xe605;" 
d="M507 885q-102 0 -195 -39.5t-160 -106.5t-107 -160t-40 -195t40 -195t107 -160t160 -106.5t195 -39.5t194.5 39.5t159.5 106.5t107 160t40 195t-40 195t-107 160t-159.5 106.5t-194.5 39.5zM507 -63q-91 0 -174 35.5t-143 95t-95.5 142.5t-35.5 174t35.5 174t95.5 142.5
t143 95t174 35.5t173.5 -35.5t142.5 -95t95.5 -142.5t35.5 -174t-35.5 -174t-95.5 -142.5t-142.5 -95t-173.5 -35.5zM453 236h91v-91h-91v91zM496 624q-74 0 -120 -40.5t-49 -97.5l83 -11q9 41 32.5 60.5t57.5 19.5q36 0 57.5 -19t21.5 -45q0 -19 -12 -35q-8 -10 -48 -42.5
t-53 -58.5t-13 -66v-22h83q-1 38 6 52.5t36 38.5q55 46 72 73t17 57q0 54 -46 95t-125 41z" />
    <glyph glyph-name="uniE606" unicode="&#xe606;" 
d="M330.5 511.5q4.5 -4.5 12.5 -2.5t16 9l133 134q7 7 9 15.5t-2.5 13t-13 2.5t-15.5 -9l-133 -134q-7 -8 -9 -16t2.5 -12.5zM351 605l82 82q10 11 -0.5 22t-21.5 0l-82 -82q-11 -11 0 -22t22 0zM689 893h-354q-41 0 -70.5 -29.5t-29.5 -70.5v-818q0 -41 29.5 -70.5
t70.5 -29.5h354q41 0 70.5 29.5t29.5 70.5v818q0 41 -29.5 70.5t-70.5 29.5zM415 826h194q7 0 11.5 -5t4.5 -11.5t-4.5 -11t-11.5 -4.5h-194q-6 0 -11 4.5t-5 11t4.5 11.5t11.5 5zM512 -86q-25 0 -42.5 17.5t-17.5 42.5t17.5 42.5t42.5 17.5t42.5 -17.5t17.5 -42.5
t-17.5 -42.5t-42.5 -17.5zM744 74h-464v672h464v-672z" />
    <glyph glyph-name="uniE607" unicode="&#xe607;" 
d="M425 328h171l-85 248zM512 896q-139 0 -257 -68.5t-186.5 -186.5t-68.5 -257t68.5 -257t186.5 -186.5t257 -68.5t257 68.5t186.5 186.5t68.5 257t-68.5 257t-186.5 186.5t-257 68.5zM669 131l-52 140h-213l-49 -140h-72l194 510h70l194 -510h-72z" />
    <glyph glyph-name="uniE608" unicode="&#xe608;" 
d="M658 879h-349q-41 0 -70 -29t-29 -71v-807q0 -42 29 -71t70 -29h349q42 0 71 29t29 71v807q0 42 -29 71t-71 29zM388 812h192q6 0 10.5 -4.5t4.5 -11t-4.5 -11t-10.5 -4.5h-192q-7 0 -11.5 4.5t-4.5 11t4.5 11t11.5 4.5zM483.5 -89q-24.5 0 -41.5 17.5t-17 42t17 41.5
t41.5 17t42 -17t17.5 -41.5t-17.5 -42t-42 -17.5zM713 69h-459v665h459v-665zM661 685h-355v-67h355v67zM499 566h-193v-182h193v182zM529 566v-18h132v18h-132zM529 507h132v18h-132v-18zM529 466h132v18h-132v-18zM529 425h132v18h-132v-18zM529 384h132v18h-132v-18z
M306 342h355v18h-355v-18zM306 301h355v18h-355v-18zM481 278h-175v-18h175v18zM306 219h355v18h-355v-18zM306 178h355v18h-355v-18z" />
    <glyph glyph-name="uniE609" unicode="&#xe609;" 
d="M818 510l79 386l-678 -151l-90 -308l628 193zM740 595l-740 -226l86 -454l859 278zM259.5 79q-53.5 0 -91.5 40t-38 96.5t38 96.5t91.5 40t91.5 -40t38 -96.5t-38 -96.5t-91.5 -40zM247 298l-19 -6l-12 -155l18 6l3 47l56 16l27 -37l20 6zM238 206l3 74l42 -60z" />
    <glyph glyph-name="uniE60A" unicode="&#xe60a;" 
d="M960 800h-902q-25 0 -41.5 -14t-16.5 -37v-576q0 -19 16 -35t35 -16h909q19 0 35 16t16 35v576q0 23 -15.5 37t-35.5 14zM947 269h-883v473h890v-473h-7zM307 634zM250 633.5q0 23.5 16.5 40.5t40.5 17t41 -17t17 -40.5t-17 -40.5t-41 -17t-40.5 17t-16.5 40.5zM538 499
h243v-166h-243v166zM538 666h243v-20h-243v20zM538 627h243v-19h-243v19zM237 499h243v-19h-243v19zM237 461h243v-19h-243v19zM237 429h243v-19h-243v19zM237 390h243v-19h-243v19zM237 352h243v-19h-243v19zM678 19h-70l-13 135h-179l-13 -135h-70q-18 0 -31.5 -18.5
t-13.5 -38.5h429q5 15 -7.5 36t-31.5 21z" />
    <glyph glyph-name="uniE60B" unicode="&#xe60b;" 
d="M0 834v-575h451v-325h142v325h431v575h-1024zM292 398q-63 0 -107 43.5t-44 105.5t44.5 105.5t107 43.5t107 -43.5t44.5 -105.5t-44.5 -105.5t-107.5 -43.5zM868 440h-324v34h324v-34zM868 529h-324v34h324v-34zM868 619h-324v35h324v-35z" />
    <glyph glyph-name="uniE60C" unicode="&#xe60c;" 
d="M810 877h-596q-80 0 -137.5 -57.5t-57.5 -137.5v-596q0 -80 57.5 -137.5t137.5 -57.5h596q80 0 137.5 57.5t57.5 137.5v596q0 80 -57.5 137.5t-137.5 57.5zM512 59q-88 0 -163 43.5t-118.5 118.5t-43.5 163t43.5 163t118.5 118.5t163 43.5t163 -43.5t118.5 -118.5
t43.5 -163t-43.5 -163t-118.5 -118.5t-163 -43.5zM486 545l-123 -322h46l31 88h134l33 -88h46l-123 322h-44zM453 348l55 156l53 -156h-108z" />
    <glyph glyph-name="uniE60D" unicode="&#xe60d;" 
d="M529 220q-3 0 -10.5 -1t-11.5 -1q-3 0 -9.5 1t-9.5 1l-63 -133l-331 159v-72l416 -190l415 190v64l-333 -151zM240 394q-13 30 -19 69l-63 -29zM26 299l388 -189l69 146l-371 180l107 46q0 1 -1.5 11.5t-1.5 16.5q0 70 36 137l-223 -85l76 -122h-1zM773 391l89 42l-68 32
q-6 -40 -21 -74zM913 438l87 131l-242 86q40 -70 40 -145q0 -5 -0.5 -10t-1 -10.5t-1.5 -9.5l107 -48l-366 -176l68 -145l392 178l-78 151zM507.5 748q-102.5 0 -175 -72.5t-72.5 -174.5t72.5 -174.5t175 -72.5t174.5 72.5t72 174.5t-72 174.5t-174.5 72.5zM583 410l-26 67
h-94l-24 -67h-32l86 224h32l92 -225h-34v1zM472 502h76l-40 108z" />
    <glyph glyph-name="uniE60E" unicode="&#xe60e;" 
d="M83 403v-94h858v94h-858zM136.5 332q-10.5 0 -18 7t-7.5 17.5t7.5 18t18 7.5t17.5 -7.5t7 -18t-7 -17.5t-17.5 -7zM230 332q-10 0 -17.5 7t-7.5 17.5t7.5 18t17.5 7.5t17.5 -7.5t7.5 -18t-7.5 -17.5t-17.5 -7zM307.5 332q-10.5 0 -17.5 7t-7 17.5t7 18t17.5 7.5t18 -7.5
t7.5 -18t-7.5 -17.5t-18 -7zM385.5 332q-10.5 0 -18 7t-7.5 17.5t7.5 18t18 7.5t17.5 -7.5t7 -18t-7 -17.5t-17.5 -7zM462.5 332q-10.5 0 -17.5 7t-7 17.5t7 18t17.5 7.5t18 -7.5t7.5 -18t-7.5 -17.5t-18 -7zM965 810h-906q-22 0 -37.5 -15.5t-15.5 -36.5v-578
q0 -22 15.5 -37t37.5 -15h361l-9 -110h-71q-17 0 -31 -20t-14 -40h434q0 20 -14 40t-31 20h-71l-9 110h361q22 0 37.5 15t15.5 37v578q0 21 -15.5 36.5t-37.5 15.5zM958 276h-892v472h892v-472zM135 682zM101 682q0 14 10 24t24 10t24 -10t10 -24t-10 -24t-24 -10t-24 10
t-10 24zM135 595zM101 595q0 14 10 24t24 10t24 -10t10 -24t-10 -24t-24 -10t-24 10t-10 24zM135 511zM101 511q0 14 10 24t24 10t24 -10t10 -24t-10 -24t-24 -10t-24 10t-10 24z" />
    <glyph glyph-name="uniE60F" unicode="&#xe60f;" 
d="M512 883q-101 0 -193.5 -39.5t-159.5 -106.5t-106.5 -159.5t-39.5 -193.5t39.5 -193.5t106.5 -159.5t159.5 -106.5t193.5 -39.5t193.5 39.5t159.5 106.5t106.5 159.5t39.5 193.5t-39.5 193.5t-106.5 159.5t-159.5 106.5t-193.5 39.5zM512 -64q-187 0 -317.5 130.5
t-130.5 317.5t130.5 317.5t317.5 130.5t317.5 -130.5t130.5 -317.5t-130.5 -317.5t-317.5 -130.5zM422 538l-89 96q-5 4 -13 4t-13 -4l-96 -96q-8 -9 0 -26q6 -8 13 -7t13 7l83 83l77 -83q5 -5 13 -5t12 5q9 17 0 26zM813 538l-96 96q-5 4 -13 4t-13 -4l-89 -96q-9 -9 0 -26
q6 -8 12.5 -7t12.5 7l77 83l83 -83q5 -5 13 -5t13 5q8 17 0 26zM243 320q0 -70 81 -131t188 -61t188 61t81 131h-538z" />
    <glyph glyph-name="uniE610" unicode="&#xe610;" 
d="M492 617h40q8 0 14 6t6 14v39q0 9 -6 15t-14 6h-40q-8 0 -14 -6t-6 -15v-39q0 -8 6 -14t14 -6zM633 617h38q9 0 14.5 6t5.5 14v39q0 9 -5.5 15t-14.5 6h-38q-9 0 -15 -6t-6 -15v-39q0 -8 6 -14t15 -6zM492 500h40q8 0 14 6t6 15v39q0 8 -6 14t-14 6h-40q-8 0 -14 -6
t-6 -14v-39q0 -9 6 -15t14 -6zM688 893h-352q-42 0 -71.5 -29.5t-29.5 -71.5v-816q0 -42 29.5 -71t71.5 -29h352q42 0 71.5 29t29.5 71v816q0 42 -29.5 71.5t-71.5 29.5zM415 825h194q6 0 11 -4.5t5 -11.5t-5 -11.5t-11 -4.5h-194q-6 0 -11 4.5t-5 11.5t5 11.5t11 4.5z
M512 -85q-25 0 -42 17.5t-17 42t17 42t42 17.5t42 -17.5t17 -42t-17 -42t-42 -17.5zM744 74h-464v672h464v-672zM633 500h38q9 0 14.5 6t5.5 15v39q0 8 -5.5 14t-14.5 6h-38q-9 0 -15 -6t-6 -14v-39q0 -9 6 -15t15 -6zM353 378h38q9 0 15 6t6 14v40q0 8 -6 14t-15 6h-38
q-9 0 -14.5 -6t-5.5 -14v-40q0 -8 5.5 -14t14.5 -6zM492 378h40q8 0 14 6t6 14v40q0 8 -6 14t-14 6h-40q-8 0 -14 -6t-6 -14v-40q0 -8 6 -14t14 -6zM722 200h-420v-104h420v104zM375 147q0 -8 -6 -14t-14 -6h-9q-8 0 -14 6t-6 14v9q0 8 6 14t14 6h9q8 0 14 -6t6 -14v-9z
M481 139q0 -5 -4 -8.5t-9 -3.5h-24q-5 0 -8.5 3.5t-3.5 8.5v24q0 6 3.5 9.5t8.5 3.5h24q5 0 9 -3.5t4 -9.5v-24zM586 139q0 -5 -3.5 -8.5t-8.5 -3.5h-24q-5 0 -9 3.5t-4 8.5v24q0 6 4 9.5t9 3.5h24q5 0 8.5 -3.5t3.5 -9.5v-24zM691 147q0 -8 -5.5 -14t-14.5 -6h-8
q-8 0 -14 6t-6 14v9q0 8 6 14t14 6h8q9 0 14.5 -6t5.5 -14v-9zM353 500h38q9 0 15 6t6 15v39q0 8 -6 14t-15 6h-38q-9 0 -14.5 -6t-5.5 -14v-39q0 -9 5.5 -15t14.5 -6zM353 617h38q9 0 15 6t6 14v39q0 9 -6 15t-15 6h-38q-9 0 -14.5 -6t-5.5 -15v-39q0 -8 5.5 -14t14.5 -6z
" />
    <glyph glyph-name="uniE611" unicode="&#xe611;" 
d="M647 380zM622 379.5q0 10.5 7.5 17.5t17.5 7t17 -7t7 -17.5t-7 -17.5t-17 -7t-17.5 7t-7.5 17.5zM541 478zM516 477.5q0 10.5 7 17.5t17.5 7t17.5 -7t7 -17.5t-7 -17.5t-17.5 -7t-17.5 7t-7 17.5zM647 478zM622 477.5q0 10.5 7.5 17.5t17.5 7t17 -7t7 -17.5t-7 -17.5
t-17 -7t-17.5 7t-7.5 17.5zM761 281zM737 281.5q0 10.5 7 17.5t17 7t17.5 -7t7.5 -17.5t-7.5 -17.5t-17.5 -7t-17 7t-7 17.5zM982 690h-940q-17 0 -29 -12t-12 -29v-530q0 -17 12 -29t29 -12h940q17 0 29 12t12 29v530q0 17 -12 29t-29 12zM843 147h-777v486h777v-486z
M933 355q-17 0 -29 12t-12 29t12 29t29 12t29 -12t12 -29t-12 -29t-29 -12zM238 380q26 0 47.5 13.5t32.5 35.5l-78 46l74 42q-27 42 -76 42q-37 0 -63.5 -26t-26.5 -63.5t26.5 -63.5t63.5 -26zM426 478zM402 477.5q0 10.5 7 17.5t17 7t17.5 -7t7.5 -17.5t-7.5 -17.5
t-17.5 -7t-17 7t-7 17.5zM418 306zM394 306q0 10 7 17t17 7t17.5 -7t7.5 -17t-7.5 -17.5t-17.5 -7.5t-17 7.5t-7 17.5z" />
    <glyph glyph-name="uniE612" unicode="&#xe612;" 
d="M803 847h-578v-926h578v926zM649 119h-270v18h270v-18zM649 170h-270v19h270v-19zM649 222h-270v18h270v-18zM379 273v19h270v-19h-270zM513.5 384q-58.5 0 -99.5 41.5t-41 100t41 100.5t99.5 42t100 -42t41.5 -100.5t-41.5 -100t-100 -41.5zM176 896v-1024h676v1024
h-676zM815 -91h-602v950h602v-950zM507 621l-64 -168h24l16 46h70l17 -46h23l-63 168h-23zM490 518l28 81l28 -81h-56z" />
    <glyph glyph-name="uniE613" unicode="&#xe613;" horiz-adv-x="1025" 
d="M1021 602l-21 1q-14 -23 -38 -57l-332 -442q-2 -3 -6 -6q-21 -18 -34 -22.5t-43 -2.5l-471 108q-19 2 -29.5 14.5t-10.5 31.5v27q0 13 7 24v-1l464 -108q25 -8 45.5 -3t29.5 16l392 442l44 51q-11 5 -25 8l-461 66q-18 13 -40 9.5t-35 -22.5l-67 -62l-360 -321
q-7 -10 -9 -24l-3 -3q-10 -13 -16 -49t1.5 -74t32.5 -48l493 -127q21 -8 40.5 -9.5t36.5 4.5t30.5 14.5t27 23t23 27.5t21.5 31l281 414q24 37 35 60q2 7 -3 9z" />
    <glyph glyph-name="uniE614" unicode="&#xe614;" 
d="M752 773v-82v205h-84v-123h-375v-82v205h-84v-205v82h-208v-123h960v123h-209zM1 -87q0 -17 12 -29t29 -12h877q17 0 29.5 12t12.5 29v696h-960v-696zM710 527h167v-164h-167v164zM710 323h167v-164h-167v164zM710 118h167v-164h-167v164zM502 527h167v-164h-167v164z
M502 323h167v-164h-167v164zM502 118h167v-164h-167v164zM293 527h167v-164h-167v164zM293 323h167v-164h-167v164zM293 118h167v-164h-167v164zM84 527h167v-164h-167v164zM84 323h167v-164h-167v164zM84 118h167v-164h-167v164z" />
    <glyph glyph-name="uniE615" unicode="&#xe615;" 
d="M506 685q-66 0 -153 -33.5t-157.5 -79.5t-120 -95.5t-49.5 -79.5q0 -33 50 -83t122 -95t158 -77.5t150 -32.5q63 0 149.5 33.5t158 79t122 95t50.5 80.5q2 30 -47 79.5t-120.5 95.5t-159 79.5t-153.5 33.5zM506 192q-87 0 -149.5 59.5t-62.5 145.5q0 82 63 143.5
t149 61.5q87 0 149 -59.5t62 -145.5q0 -87 -60.5 -146t-150.5 -59zM506 538q-63 0 -108.5 -43t-45.5 -105q0 -58 46 -102.5t108 -44.5q63 0 108 43t45 104.5t-45 104.5t-108 43z" />
    <glyph glyph-name="uniE616" unicode="&#xe616;" 
d="M800 768h-698q-42 0 -69 -28t-27 -68v-698q0 -38 29 -67t67 -29h698q38 0 67 29t29 67v698q0 38 -29 67t-67 29zM832 -26q0 -14 -9 -23t-23 -9h-698q-14 0 -23 9t-9 23v474h762v-474zM832 512h-762v160q0 11 9.5 21.5t22.5 10.5h698q10 0 21 -11t11 -21v-160zM672 576h64
v64h-64v-64zM576 640h-416q-10 0 -21 -11t-11 -21q0 -13 10.5 -22.5t21.5 -9.5h416q14 0 23 9t9 23q0 11 -9.5 21.5t-22.5 10.5zM922 890h-698q-40 0 -68 -27t-28 -69h64q0 14 9 23t23 9h698q14 0 23 -9t9 -23v-698q0 -14 -9 -23t-23 -9v-64q38 0 67 29t29 67v698
q0 43 -26.5 69.5t-69.5 26.5z" />
    <glyph glyph-name="uniE617" unicode="&#xe617;" 
d="M666 378l-250 -103q48 -38 96 -38q61 0 105 41t49 100zM301 384q0 82 62.5 143.5t148.5 61.5q90 0 154 -64l128 57q-180 90 -282 90q-85 0 -201 -53t-197.5 -122t-81.5 -113q0 -42 70 -102l199 83q3 3 3 6t-1.5 7t-1.5 6zM365 390l243 103q-38 38 -96 38q-57 0 -99.5 -41
t-47.5 -100zM922 486l-199 -83v-19q0 -82 -62.5 -143.5t-148.5 -61.5q-90 0 -154 64l-128 -57q180 -90 282 -90q87 0 203.5 54.5t196.5 123.5t80 110q0 42 -70 102zM15 195l979 413l15 -36l-979 -413z" />
    <glyph glyph-name="uniE618" unicode="&#xe618;" 
d="M916.5 692q-12.5 14 -30.5 15q-40 1 -90.5 25t-109.5 62.5t-81 49.5q-77 38 -101 42q-4 1 -7 1t-7 -1q-23 -3 -100 -42q-23 -12 -81.5 -50t-109 -62t-90.5 -25q-19 -1 -31 -15t-11 -33q14 -291 116.5 -482t293.5 -299q9 -6 20 -6t21 6q190 108 293 299t117 482
q1 19 -11.5 33zM657 256l-38 -38q-5 -5 -12.5 -5t-13.5 5l-96 96l-96 -96q-5 -5 -12.5 -5t-12.5 5l-39 38q-5 6 -5 13.5t5 12.5l96 96l-96 96q-5 5 -5 12.5t5 12.5l39 39q5 5 12.5 5t12.5 -5l96 -96l96 96q6 5 13.5 5t12.5 -5l38 -39q5 -5 5 -12.5t-5 -12.5l-96 -96l96 -96
q6 -5 6 -12.5t-6 -13.5z" />
    <glyph glyph-name="uniE619" unicode="&#xe619;" 
d="M535 888q-23 18 -46 0q-140 -103 -238.5 -181t-146 -119t-73 -70t-28.5 -37.5t-3 -17.5v-473q0 -49 34.5 -83.5t83.5 -34.5h788q49 0 83.5 34.5t34.5 83.5v473q0 9 -3 17.5t-28.5 37.5t-73 70t-146 119t-238.5 181zM688 231l252 -258l-307 219l-121 -78l-121 78
l-307 -219l252 258l-305 238l166 -66v217h630v-217l166 66zM315 566v-118v-10v-118h394v118v10v118h-394z" />
    <glyph glyph-name="uniE61A" unicode="&#xe61a;" 
d="M936.5 692q-12.5 14 -30.5 15q-41 1 -91 25t-109 62.5t-81 49.5q-77 38 -101 42q-4 1 -7 1t-7 -1q-23 -3 -101 -42q-22 -11 -80.5 -49.5t-109 -62.5t-90.5 -25q-19 -1 -31 -15t-11 -33q14 -291 116.5 -482t293.5 -299q9 -6 20 -6t21 6q190 108 293 299t117 482
q1 19 -11.5 33zM716 465l-191 -191l-44 -44l-1 -1q-9 -9 -19 0l-1 1l-44 45l-97 97q-10 10 0 20l44 44q10 10 20 0l88 -88l181 182q9 9 19 0l45 -46q10 -9 0 -19z" />
    <glyph glyph-name="uniE61B" unicode="&#xe61b;" horiz-adv-x="1032" 
d="M375 455v225q0 6 -6 6h-363q-6 0 -6 -6v-225q0 -6 6 -6h363q6 0 6 6zM1015 -66q-13 23 -20 41q-2 5 -6.5 15t-6.5 16q-1 3 -4 16.5t-7 21.5q-3 5 -5 17.5t-4 16.5q-3 8 -4 19.5t-0.5 27.5t0.5 21q-2 88 -7 130q-1 13 -12 62t-10 74q1 9 3 33.5t2 34t-3 33.5q-7 25 -36 48
q-2 2 -18 11q-2 3 -10.5 9.5t-11.5 7.5q-10 4 -25.5 16t-27.5 21l-11 10q-13 10 -34 34.5t-34 34.5q-6 4 -15 17t-9 14q-39 47 -95 47q-40 1 -54 2q-11 1 -32 5t-38.5 6.5t-31.5 1.5q-19 0 -43 -12q-7 -5 -17 -9t-23 -8t-18 -6q-19 -7 -20 -27t15 -32q7 -5 16.5 -8.5
t17 -4.5t19.5 -2.5t17 -1.5q28 -5 39 -14q2 -2 9 -9.5t11 -9.5q13 -7 24 -19t22.5 -28.5t18.5 -25.5q1 0 41 -39q25 -24 37 -82q8 -41 -2.5 -73.5t-46.5 -44.5q-21 -7 -43.5 -1t-37.5 22q-10 7 -34.5 21t-37.5 23q-78 59 -118 18q-11 -10 -13 -24.5t11 -24.5q17 -9 41 -28
q12 -10 39.5 -39t45.5 -40q8 -6 24.5 -18t25.5 -18q21 -13 49 -39l10 -11q3 -4 15.5 -32.5t23.5 -36.5q5 -5 14.5 -16.5t14.5 -15.5q6 -5 22.5 -18.5t24.5 -20.5q28 -26 35 -42q22 -32 26 -77l1 -6t0 -10q0 -2 3 -2.5t8.5 -1t10.5 0t10 0.5h6h289z" />
    <glyph glyph-name="uniE61C" unicode="&#xe61c;" 
d="M245 394q2 4 5 6l425 425q6 7 15.5 7t15.5 -7l68 -67q6 -7 6 -16.5t-6 -15.5l-16 -16l-155 -155l-154 -155q-7 -6 -7 -15.5t7 -16.5l309 -309l16 -16q6 -7 6 -16t-6 -16l-16 -16l-35 -35l-17 -16q-6 -7 -15.5 -7t-15.5 7l-17 16l-341 341l-67 67l-2 2q-9 11 -3 24z" />
    <glyph glyph-name="uniE61D" unicode="&#xe61d;" 
d="M922 832h-820q-39 0 -67.5 -26t-28.5 -64v-512q0 -37 28.5 -63t67.5 -26h96v-205l314 211h410q39 0 67.5 26t28.5 64v512q0 33 -29 58t-67 25zM928 262q0 -19 -13 -31.5t-32 -12.5h-403l-211 -141v141h-128q-19 0 -32 12.5t-13 31.5v448q0 20 13 32.5t32 12.5h742
q19 0 32 -12.5t13 -32.5v-448zM192 557h128v-128h-128v128zM448 557h128v-128h-128v128zM704 557h128v-128h-128v128z" />
    <glyph glyph-name="uniE61E" unicode="&#xe61e;" 
d="M247 517q-22 0 -47 -3.5t-46.5 -8t-39 -9t-28.5 -8t-10 -3.5l31 -240l70 -70v-202q5 -3 13.5 -8.5t32 -14t42.5 -8.5q17 0 39.5 7.5t35.5 15.5l14 8v190l-70 44zM670 586q42 -31 89 -31q56 0 97.5 40t41.5 92q0 57 -41 95t-98 38q-19 0 -57 -12q19 -38 19 -89
q7 -63 -51 -133zM278 555q46 0 89 31q-51 61 -51 133q0 51 19 89q-28 18 -57 18q-56 0 -97.5 -40t-41.5 -92q5 -62 43.5 -100.5t95.5 -38.5zM790 517l-31 -304l-102 -69v-171q45 -31 89 -31q17 0 39 7.5t36 15.5l13 8v202l76 64l26 240q-3 0 -24 6.5t-56.5 16t-65.5 15.5z
M759 485q-140 32 -241 32q-45 0 -105 -8t-97 -16l-38 -8l32 -272l101 -69v-240q51 -32 101 -32q22 0 47.5 8t39.5 16l14 8v240l101 69zM518 555q71 0 121 49.5t50 120.5t-50 121t-121 50t-120.5 -50t-49.5 -121t49.5 -120.5t120.5 -49.5z" />
    <glyph glyph-name="uniE61F" unicode="&#xe61f;" 
d="M755 435q39 34 55 71.5t16 95.5q0 106 -63 184t-149 78q-87 0 -149 -76.5t-62 -185.5q0 -61 15.5 -96.5t55.5 -70.5q-13 -6 -35.5 -19t-35.5 -19q0 6 3.5 19t3.5 19q0 67 -41 117t-94 50q-61 0 -101 -49t-40 -118q0 -26 6 -52t16.5 -43t22.5 -14q-135 -40 -166 -209
q-10 -54 -7 -98q0 -9 8 -17t18 -8h173v-45q0 -19 12.5 -32t32.5 -13h729q19 0 32 13t13 32v57q0 50 -9 96t-25 82.5t-36 69.5t-42 58t-44.5 45.5t-42.5 35t-35.5 24t-25.5 13.5zM614 755q53 0 84.5 -41t31.5 -112t-28.5 -103t-87.5 -32q-115 0 -115 135q0 73 29.5 113
t85.5 40zM269 512q36 0 43.5 -13t7.5 -64q0 -25 -1 -37t-8 -18.5t-14.5 -7.5t-27.5 -1t-27.5 1t-14.5 7.5t-8 18.5t-1 37q0 49 9 63t42 14zM211 58h-115q0 40 10.5 73t26 54t37 36.5t39 23t36.5 12t26 5t11 0.5q-61 -91 -71 -204zM301 -6q0 60 10.5 111.5t29 86.5t42 63.5
t49.5 45.5t52 29.5t49.5 17.5t41.5 7.5t29 2.5h10q86 0 158 -48t114 -132t42 -184h-627z" />
    <glyph glyph-name="uniE620" unicode="&#xe620;" 
d="M979 -13l-160 186q-19 19 -45 6l-44 58q96 105 96 262q3 107 -49 198.5t-143.5 145t-198.5 53.5t-198.5 -53.5t-145 -145t-53.5 -198.5t53.5 -198.5t145 -145t198.5 -53.5q124 0 224 71l45 -58q-19 -19 -6 -45l160 -185q19 -19 44 -7l77 64q10 10 10 23t-10 22zM154 499
q0 115 80 195t195 80t195 -80t80 -195t-80 -195t-195 -80q-72 -3 -136 33.5t-101.5 101.5t-37.5 140z" />
    <glyph glyph-name="uniE621" unicode="&#xe621;" 
d="M717 767q-4 25 -1.5 45.5t9 36t13.5 26t12 15.5l5 5h-486q-3 2 0 -1q54 -55 38 -127q-3 -17 -12 -58q-11 -47 -16 -73t-13 -75.5t-9 -80t1.5 -75.5t13.5 -73t31 -60t50.5 -50t75.5 -30.5t102 -12.5q69 0 118.5 22.5t74.5 58.5t37.5 85.5t11.5 98.5t-8.5 104t-17 95
t-19.5 77.5t-11 46.5zM570 473l-58 45l-64 -45l26 71l-64 44h76l26 77l26 -70h76l-64 -45zM717 851l32 -116l38 20l-6 38l160 6v-140q0 -4 -1.5 -10.5t-11.5 -29.5t-27.5 -49t-55.5 -68t-90 -86v-64q8 4 22 12.5t51 38.5t67 63.5t59 87.5t38 111v186h-275zM275 735l32 116
h-275v-186q24 -159 175 -273q35 -27 62 -40v64q-52 44 -90 85.5t-55.5 69t-27.5 48.5t-11 30l-2 10v140l160 -6l-6 -38zM589 211h-147l-26 -281h192zM704 -38h-384q-30 0 -53.5 -22.5t-23.5 -54.5v-13h531v13q0 33 -20.5 55t-49.5 22z" />
    <glyph glyph-name="uniE622" unicode="&#xe622;" 
d="M4 704q-3 -8 -3 -13v-607q0 -1 2 -10l339 344zM989 733l-3 1t-5 1h-937q-2 0 -4.5 -1t-3.5 -1l477 -404zM1021 704l-337 -286l338 -344q2 9 2 10v607q0 5 -3 13zM526 285q-6 -5 -13.5 -5t-13.5 5l-125 105l-341 -347q8 -2 11 -2h937q2 0 11 2l-341 347z" />
    <glyph glyph-name="uniE623" unicode="&#xe623;" 
d="M506 237q-90 78 -160 166q-15 20 -24 35t-16.5 33.5t-5.5 33.5t14 26l-224 243q-13 -18 -23 -45t-11.5 -82t15.5 -117.5t70.5 -154.5t140.5 -189q67 -75 132.5 -131t118.5 -87t103 -48.5t87 -20.5t68 1t49.5 12t29.5 18l-217 236q-12 -9 -25.5 -9.5t-32 9.5t-38.5 26
t-51 45zM960 64l-173 186q-9 9 -25 9t-26 -9l-64 -64l218 -237l64 64q13 9 14.5 25.5t-8.5 25.5zM403 614q10 10 10 26t-10 26l-173 192q-30 20 -51 0l-64 -64l224 -244q-3 0 13 16t34 32z" />
    <glyph glyph-name="uniE624" unicode="&#xe624;" 
d="M544 557l448 -275q20 -16 26 -37.5t-7 -46.5q-15 -20 -36.5 -26t-46.5 7l-416 256l-416 -256q-20 -13 -44 -7t-39 26q-14 20 -7.5 44.5t26.5 39.5l448 268q1 1 3.5 3t9.5 5t14.5 5t17.5 0.5t19 -6.5z" />
    <glyph glyph-name="uniE625" unicode="&#xe625;" 
d="M512 832q-91 0 -174 -35.5t-143 -95.5t-95.5 -143t-35.5 -174t35.5 -173.5t95.5 -142.5t143 -95.5t174 -35.5t173.5 35.5t142.5 95.5t95.5 142.5t35.5 173.5t-35.5 174t-95.5 143t-142.5 95.5t-173.5 35.5zM667 272l-43 -43l-112 113l-113 -113l-43 43l113 112l-113 113
l43 43l113 -113l112 113l43 -43l-113 -113z" />
    <glyph glyph-name="uniE626" unicode="&#xe626;" 
d="M640 512h-262q-10 0 -18 -8t-8 -18v-217q0 -10 8 -18t18 -8h262q10 0 18 8t8 18v217q0 26 -26 26zM435 486q19 0 32 -12.5t13 -32t-13 -32t-32 -12.5t-32 12.5t-13 32t13 32t32 12.5zM365 269l70 96l51 -58h13l83 167l71 -205h-288zM512 826q-92 0 -175 -35.5t-143 -95
t-95 -142.5t-35 -175t35 -175t95 -143t143 -95t175 -35t175 35t143 95t95 143t35 175t-35 175t-95 142.5t-143 95t-175 35.5zM704 237q0 -10 -8 -18t-18 -8h-332q-10 0 -18 8t-8 18v288q0 9 8 17t18 8h332q10 0 18 -8t8 -17v-288z" />
    <glyph glyph-name="uniE627" unicode="&#xe627;" 
d="M861 650l-293 169q-23 13 -55.5 13t-55.5 -13l-293 -169q-23 -14 -39.5 -42t-16.5 -55v-338q0 -26 16.5 -54.5t39.5 -41.5l293 -169q23 -13 55.5 -13t55.5 13l293 169q23 13 39 41.5t16 54.5v338q0 27 -16 55t-39 42zM608 384q0 -81 -57 -138t-138 -57t-138 57t-57 138
v149q0 19 13.5 33t32.5 14t32.5 -14t13.5 -33v-149q0 -42 30 -72.5t73 -30.5t73 30.5t30 72.5v149q0 19 13.5 33t32.5 14t32.5 -14t13.5 -33v-149zM807 235q0 -19 -13.5 -32.5t-32.5 -13.5t-33 13.5t-14 32.5v298q0 19 14 33t33 14t32.5 -14t13.5 -33v-298z" />
    <glyph glyph-name="uniE628" unicode="&#xe628;" 
d="M522 651q3 -2 6 -5l425 -424q6 -7 6 -16.5t-6 -15.5l-68 -68q-6 -6 -15.5 -6t-16.5 6l-16 16l-154 155l-155 155q-7 6 -16.5 6t-15.5 -6l-309 -310l-17 -16q-6 -6 -15.5 -6t-15.5 6l-17 16l-35 36l-16 16q-6 6 -6 15.5t6 16.5l16 16l341 341l68 67l2 2q11 9 24 3z" />
    <glyph glyph-name="uniE629" unicode="&#xe629;" 
d="M256 294l403 -396q24 -24 57.5 -24t57.5 24t24 57.5t-24 57.5l-307 307l-5 6q-4 3 -11 15t-9 25t3.5 33.5t21.5 42.5l314 313q24 24 24 57.5t-24 57.5t-57.5 24t-57.5 -24l-410 -396q-34 -39 -34 -90t34 -90z" />
    <glyph glyph-name="uniE62A" unicode="&#xe62a;" 
d="M768 474l-403 396q-24 24 -57.5 24t-57.5 -24t-24 -57.5t24 -57.5l307 -307l5 -6q4 -3 11 -15t9 -25t-3.5 -33.5t-21.5 -42.5l-314 -313v0q-24 -24 -24 -57.5t24 -57.5t57.5 -24t57.5 24l410 396q34 39 34 90t-34 90z" />
    <glyph glyph-name="uniE62B" unicode="&#xe62b;" 
d="M512 896q-14 0 -23 -9t-9 -23v-198q0 -10 9 -18t23 -8t23 9t9 23v192q0 14 -9 23t-23 9zM512 128q-14 0 -23 -9t-9 -23v-198q0 -10 9 -18t23 -8t23 9t9 23v198q0 10 -9 18t-23 8zM640 602q27 -14 45 12l96 167q13 27 -13 45q-23 15 -45 -7l-96 -173q-4 -9 -0.5 -22
t13.5 -22zM384 166q-27 14 -45 -12l-96 -167q-13 -27 13 -45q27 -13 45 13l96 167q4 9 0.5 22t-13.5 22zM730 512q4 -10 17 -13.5t27 0.5l167 96q14 10 18 22.5t-5 22.5q-5 10 -18 13.5t-27 -0.5l-167 -96q-9 -10 -13 -22.5t1 -22.5zM294 256q-9 10 -22 13.5t-22 -0.5
l-167 -96q-14 -10 -18 -22.5t5 -22.5q5 -10 18 -13.5t27 0.5l167 96q9 10 13 22.5t-1 22.5zM992 416h-198q-10 0 -18 -9t-8 -23t9 -23t23 -9h198q10 0 18 9t8 23t-9 23t-23 9zM256 384q0 14 -9 23t-23 9h-192q-14 0 -23 -9t-9 -23t9 -23t23 -9h198q10 0 18 9t8 23zM947 173
l-166 96q-27 13 -45 -13q-14 -27 13 -45l166 -96q27 -13 45 13q5 10 1 22.5t-14 22.5zM77 595l166 -96q29 -9 51 13q14 27 -12 45l-173 96q-10 5 -22 1t-17 -14q-8 -10 -6 -22t13 -23zM685 154q-5 9 -18 13t-27 -1q-10 -4 -13.5 -17t0.5 -27l96 -167q5 -10 18 -13.5t27 0.5
q25 9 13 45zM301 819q-11 11 -23 13t-22 -6q-10 -5 -14 -17t1 -22l96 -166q10 -14 23 -19.5t22 0.5q10 4 13.5 17t-0.5 27z" />
    <glyph glyph-name="uniE62C" unicode="&#xe62c;" 
d="M230 205l359 -275v908l-359 -268v-365zM19 493v-211q0 -30 46 -53.5t108 -23.5v365q-62 0 -108 -24t-46 -53zM870 704l-76 -64q5 -5 13 -14t27.5 -38t34 -60.5t24 -78.5t5 -94t-30 -105.5t-73.5 -115.5l70 -64q2 -1 18 15.5t37.5 48.5t43 75.5t31 101t5.5 118
t-36.5 133.5t-92.5 142zM749 582l-64 -57q5 -5 13.5 -15t24.5 -40t21 -61.5t-8.5 -77t-50.5 -88.5l64 -64q4 4 10.5 11.5t22.5 31.5t27.5 49.5t19.5 63.5t4.5 75.5t-24.5 83t-60 88.5z" />
    <glyph glyph-name="uniE62D" unicode="&#xe62d;" 
d="M237 570h269h268v89h-537v-89zM384 320v-211h243v211h128l-249 250l-250 -250h128zM934 896h-844q-39 0 -64.5 -25.5t-25.5 -64.5v-844q0 -39 25.5 -64.5t64.5 -25.5h844q39 0 64.5 25.5t25.5 64.5v844q0 39 -25.5 64.5t-64.5 25.5zM960 -13q0 -19 -16 -35t-35 -16h-794
q-19 0 -35 16t-16 35v794q0 19 16 35t35 16h794q19 0 35 -16t16 -35v-794z" />
    <glyph glyph-name="uniE62E" unicode="&#xe62e;" 
d="M422 301h180v249h185l-275 250l-275 -250h185v-249zM986 269l-154 102h-115l173 -134h-180l-44 -122h-154h-154l-44 122h-180l173 134h-115l-154 -102q-20 -14 -28 -40t-6 -44l2 -19l13 -102q6 -25 19.5 -43t27 -25.5t30 -11t22.5 -3.5h10h384h384h10q6 0 22.5 3.5t30 11
t27 25.5t19.5 43l13 102q0 3 0.5 8t0.5 19t-2.5 26t-10.5 26.5t-20 23.5z" />
    <glyph glyph-name="uniE62F" unicode="&#xe62f;" 
d="M770 407q-9 3 -12.5 4.5t-6.5 7.5t2 14q26 66 0 103q-26 35 -87.5 34.5t-141.5 -33.5q-28 -11 -26 6l2 6q26 83 -12 120q-42 42 -141 3.5t-196 -135.5q-73 -73 -113 -147.5t-40 -140.5q0 -62 37.5 -114.5t98.5 -86.5t138 -53t157 -19q81 0 155.5 17.5t129.5 47.5
t96.5 67.5t62.5 78.5t21 80q0 53 -36.5 88.5t-87.5 51.5zM446 19q-82 -8 -165.5 23t-138 84.5t-59.5 108.5q-6 55 35 103.5t113 78.5t157 35q97 6 184 -20t139.5 -72.5t57.5 -102.5q6 -54 -39.5 -106.5t-122 -87.5t-161.5 -44zM955.5 718q-49.5 55 -119 77t-140.5 7
q-15 -4 -24 -17.5t-5.5 -29.5t17 -25t29.5 -5q50 10 99 -5.5t84.5 -54.5t46 -90.5t-5.5 -98.5q-5 -15 2.5 -29.5t23 -19.5t30 2t19.5 23q23 66 8 138.5t-64.5 127.5zM851.5 624.5q-24.5 26.5 -58 37t-67.5 3.5q-14 -3 -21.5 -14.5t-4.5 -25.5t14.5 -21.5t25.5 -4.5
q36 8 61 -20t14 -63q-4 -14 2 -26.5t19.5 -16.5t26 2.5t16.5 19.5q11 32 4 67.5t-31.5 62zM447 355q-61 16 -121 -10.5t-87 -80.5t-3.5 -107t84.5 -73q63 -20 128 7.5t91 85.5q25 58 -2 110t-90 68zM385 169q-12 -20 -35 -27.5t-43 2.5q-20 8 -25 28t7 39.5t34.5 27
t42.5 -1.5q20 -8 25.5 -28t-6.5 -40zM439 239q-4 -8 -13 -11t-16.5 0t-9.5 10.5t2.5 15t12.5 10.5t15.5 0t10 -10.5t-1.5 -14.5z" />
    <glyph glyph-name="uniE630" unicode="&#xe630;" 
d="M819.5 312q-18.5 0 -31.5 13.5t-13 32t13 31.5t31 13t31 -13t13 -31.5t-12.5 -32t-31 -13.5zM592 312q-18 0 -31 13.5t-13 32t13 31.5t31 13t31 -13t13 -31.5t-13 -32t-31 -13.5zM1022 249q0 108 -84.5 186.5t-207.5 86.5q-13 1 -23 1q-130 0 -222 -80.5t-92 -193.5
q0 -34 9 -66q26 -91 111 -149.5t194 -58.5q75 0 140 28l71 -48q1 0 2 -1t4 -2t5.5 0t4 4.5t1.5 10.5l-20 76q50 38 78.5 91.5t28.5 114.5zM225.5 557q-18.5 0 -31.5 13t-13 31.5t13 31.5t31.5 13t31.5 -13t13 -31.5t-13 -31.5t-31.5 -13zM503.5 646q18.5 0 31.5 -13
t13 -31.5t-13 -31.5t-31.5 -13t-31.5 13t-13 31.5t13 31.5t31.5 13zM707 545h20q-19 115 -121.5 193t-238.5 78q-99 0 -183 -42.5t-132.5 -115.5t-48.5 -160q0 -71 34.5 -134.5t95.5 -108.5l-27 -101q0 -1 -0.5 -3t-0.5 -7.5t2.5 -8t8 -4t16.5 3.5l100 69q65 -23 135 -23
q2 0 6 0.5t6 0.5q-9 33 -9 67q0 80 45 148.5t123 108t169 39.5z" />
    <glyph glyph-name="uniE631" unicode="&#xe631;" horiz-adv-x="1025" 
d="M934 307h-345v-345h-154v345h-345v154h345v345h154v-345h345v-154z" />
    <glyph glyph-name="uniE632" unicode="&#xe632;" 
d="M91 462h843v-158h-843v158z" />
    <glyph glyph-name="uniE633" unicode="&#xe633;" 
d="M72.5 -55.5q8.5 -8.5 20 -8.5t19.5 8l400 401l400 -401q8 -8 19.5 -8t20 8.5t8.5 20t-8 19.5l-400 400l400 400q8 8 8 19.5t-8.5 20t-20 8.5t-19.5 -9l-400 -400l-400 400q-8 9 -19.5 9t-20 -8.5t-8.5 -20t9 -19.5l399 -400l-399 -400q-9 -8 -9 -19.5t8.5 -20z" />
    <glyph glyph-name="uniE634" unicode="&#xe634;" 
d="M512 832q-91 0 -174 -35.5t-143 -95.5t-95.5 -143t-35.5 -174t35.5 -173.5t95.5 -142.5t143 -95.5t174 -35.5t174 35.5t143 95.5t95 142.5t35 173.5t-35 174t-95 143t-143 95.5t-174 35.5zM448 175l-1 -1l-215 216l76 76l140 -140l268 268l76 -76z" />
    <glyph glyph-name="uniE635" unicode="&#xe635;" 
d="M510 832q-91 0 -173.5 -35.5t-142.5 -95.5t-95.5 -143t-35.5 -174t35.5 -173.5t95.5 -142.5t142.5 -95.5t173.5 -35.5t174 35.5t143 95.5t95.5 142.5t35.5 173.5t-35.5 174t-95.5 143t-143 95.5t-174 35.5zM644 326l76 -76l-75 -76l-1 1l-134 133l-133 -133l-1 -1l-76 76
l76 76l58 58l-134 134l76 76l134 -134l134 134l76 -76l-134 -134z" />
    <glyph glyph-name="uniE636" unicode="&#xe636;" 
d="M564 146q11 12 163 164t184 185l74 74q13 13 13 31t-13 31l-227 227q-13 13 -31 13t-31 -13l-82 -82l-177 -177q-147 -147 -157 -158q-2 -1 -9.5 -8t-12.5 -12.5t-12 -16t-13 -26.5t-11 -37l-71 -317q215 47 318 70q21 5 36.5 10.5t25.5 12t15 11t10.5 11t7.5 7.5z
M732 771l165 -165l-65 -65l-165 165zM448 284l-37 37l278 278l37 -37zM625 663l45 -46l-278 -278l-45 45zM255 127l63 213l150 -150zM512 219l-46 46l278 278l46 -46z" />
    <glyph glyph-name="uniE637" unicode="&#xe637;" 
d="M914 880h-804q-28 0 -47.5 -19t-19.5 -47v-860q0 -22 14 -40l53 106l67 -132l67 132l67 -132l67 132l67 -132l67 132l67 -132l67 132l67 -132l67 132l67 -132l67 132l53 -106q14 18 14 40v860q0 28 -19.5 47t-47.5 19zM310 238v-66q-18 -9 -59 0v60q-55 -8 -141 21
q4 34 20 68q2 -2 6 -3.5t18.5 -6t30.5 -6.5t42 -2t53 5q23 3 34.5 16.5t13.5 28.5q1 11 -9.5 24t-38.5 24q-8 4 -29.5 11t-36 12t-34 15.5t-31 22t-19.5 29t-7 38.5q1 31 14.5 55t34 37t40.5 19t39 6v58q26 9 59 0v-58q74 -9 104 -19q-2 -29 -22 -64q-4 1 -10.5 3t-25 6.5
t-36.5 6.5t-40 0.5t-39 -9.5q-4 -1 -9.5 -8t-6.5 -14q1 -2 -1 -9.5t6 -20t25 -19.5q7 -2 34 -11.5t44 -16t36.5 -15.5t27.5 -16q12 -12 18.5 -20.5t11 -26t4.5 -42.5q0 -45 -37.5 -77t-83.5 -36zM881 132h-202q-15 0 -23 8.5t-9 16.5l-1 8q0 14 9.5 23.5t23.5 9.5h202
q13 0 23 -9.5t10 -23.5q0 -3 -1 -8.5t-9.5 -15t-22.5 -9.5zM881 298h-303q-15 0 -23 8t-9 16l-1 9q0 13 9.5 23t23.5 10h303q13 0 23 -10t10 -23q0 -4 -1 -9.5t-9.5 -14.5t-22.5 -9zM881 463h-303q-15 0 -23 8.5t-9 16.5l-1 8q0 14 9.5 23.5t23.5 9.5h303q13 0 23 -9.5
t10 -23.5q0 -3 -1 -9t-9.5 -15t-22.5 -9zM881 629h-303q-15 0 -23 8t-9 16l-1 9q0 13 9.5 23t23.5 10h303q13 0 23 -10t10 -23q0 -4 -1 -9.5t-9.5 -14.5t-22.5 -9z" />
    <glyph glyph-name="uniE638" unicode="&#xe638;" 
d="M990 706q20 19 20 46t-20 46l-63 64q-20 19 -47.5 19t-46.5 -19l-32 -32l156 -157zM589 305l344 344l-156 156l-344 -344zM347 221l220 62l-156 156zM899 83q0 -40 -29 -69t-70 -29h-589q-41 0 -69.5 29t-28.5 69v589q0 41 28.5 69.5t69.5 28.5h392l98 99h-523
q-68 0 -116 -48t-48 -116v-655q0 -67 48 -115t116 -48h655q68 0 116 48t48 115v524l-98 -99v-392z" />
    <glyph glyph-name="uniE639" unicode="&#xe639;" 
d="M256.5 640q30.5 0 52 21.5t21.5 51.5v110q0 30 -21.5 51.5t-52 21.5t-51.5 -21.5t-21 -51.5v-110q0 -30 21 -51.5t51.5 -21.5zM767.5 640q30.5 0 51.5 21.5t21 51.5v110q0 30 -21 51.5t-51.5 21.5t-52 -21.5t-21.5 -51.5v-110q0 -30 21.5 -51.5t52 -21.5zM913 786h-36
v-109q0 -31 -21.5 -52.5t-51.5 -21.5h-73q-30 0 -51.5 21.5t-21.5 52.5v109h-292v-109q0 -31 -21.5 -52.5t-51.5 -21.5h-73q-30 0 -51.5 21.5t-21.5 52.5v109h-37q-30 0 -51 -21.5t-21 -51.5v-768q0 -30 21 -51.5t51 -21.5h803q31 0 52 21.5t21 51.5v768q0 30 -21 51.5
t-52 21.5zM283 6l-12 -13l-4 -25l-59 44l-74 -47l14 37l44 37l-43 44l28 28l36 -42l64 42l40 3l-92 -75zM225 245l58 -34l-12 -12l-4 -25l-59 44l-74 -48l14 38l44 37l-42 43l27 29l36 -42l64 40l40 4zM225 435l58 -33l-12 -13l-4 -25l-59 45l-74 -48l14 38l44 36l-42 44
l27 28l36 -41l64 41l40 4zM474 6l-12 -13l-4 -25l-59 44l-74 -47l14 37l44 37l-42 44l27 28l36 -42l65 42l39 3l-92 -75zM416 245l58 -34l-12 -12l-4 -25l-59 44l-74 -48l14 38l44 37l-42 43l27 29l36 -42l65 40l39 4zM416 435l58 -33l-12 -13l-4 -25l-59 45l-74 -48l14 38
l44 36l-42 44l27 28l36 -41l65 41l39 4zM658 6h-137v80h137v-80zM665 214l-12 -12l-4 -25l-59 44l-74 -48l14 38l44 37l-42 43l27 29l36 -42l64 41l40 3l-92 -74zM607 435l58 -33l-12 -13l-4 -25l-59 45l-74 -48l14 38l44 36l-42 44l27 28l36 -41l64 41l40 4zM849 6h-137v80
h137v-80zM856 214l-12 -12l-4 -25l-59 44l-74 -48l14 38l44 37l-42 43l27 29l36 -42l65 41l39 3l-92 -74zM798 435l58 -33l-12 -13l-4 -25l-59 45l-74 -48l14 38l44 36l-42 44l27 28l36 -41l65 41l39 4z" />
    <glyph glyph-name="uniE63A" unicode="&#xe63a;" 
d="M446 527h-74v-73h74v73zM630 527v72h-36v-72h36zM446 454v-73h74v73h-74zM630 527v-73h37v73h-37zM520 599h74v73h-74v-73zM520 672v73h-74v-73h74zM667 599v73h-37v-73h37zM594 454v-73h36v73h-36zM667 527h74v72h-74v-72zM446 672h-74v-73h74v73zM741 454h74v73h-74
v-73zM741 672v-73h74v73h-74zM520 599h-74v-72h74v72zM718 772q-14 3 -30 3.5t-24 1t-9 5.5q-11 38 -31 75q-35 5 -90 13t-164.5 18.5t-146.5 5.5q-1 0 -7.5 0.5t-16 1t-16.5 0.5q-18 0 -47 -10.5t-29 -23.5v-944l57 -46l53 46v281q6 8 16 13q54 28 191 68.5t198 31.5l1 -66
q18 -22 54.5 -30t76 -3t76.5 13.5t61 16.5l24 8l2 560q-31 -10 -63 -23.5t-45 -18t-35.5 -5t-55.5 7.5zM229 265q-2 -3 -5 -4.5t-5 -0.5l-2 1v594q0 7 3.5 7.5t8.5 -12.5q21 -42 34 -146.5t6 -232t-40 -206.5zM889 599h-74v-72h74v-73h-74v-73h74v-73h-74v-36h-74v36h-74v73
h-37v-37h-36v37h-74v-37h-74v37h-74v-73h-74v73h74v73h-74v73h74v72h-74v73h74v73h-74v73h74v-73h74v73h74v-73h74v-73h37v73h37v-73h73v37h74v-37h74v-73zM520 527v-73h74v73h-74zM741 454h-74v-73h74v73zM741 308h74v73h-74v-73z" />
    <glyph glyph-name="uniE63B" unicode="&#xe63b;" 
d="M263.5 633q29.5 0 50.5 20.5t21 50.5v106q0 30 -21 50.5t-50.5 20.5t-50 -20.5t-20.5 -50.5v-106q0 -30 20.5 -50.5t50 -20.5zM760.5 633q29.5 0 50 20.5t20.5 50.5v106q0 30 -20.5 50.5t-50 20.5t-50.5 -20.5t-21 -50.5v-106q0 -30 21 -50.5t50.5 -20.5zM902 775h-35
v-107q0 -29 -21 -50t-50 -21h-71q-30 0 -50.5 21t-20.5 50v107h-284v-107q0 -29 -20.5 -50t-50.5 -21h-71q-29 0 -50 21t-21 50v107h-35q-29 0 -50 -21t-21 -50v-746q0 -30 21 -50.5t50 -20.5h780q29 0 50 20.5t21 50.5v746q0 29 -21 50t-50 21zM902 -42h-780v568h780v-568z
M469 220q-18 -43 -29 -121h77q5 58 15 92q2 6 5 16.5t4.5 15.5t4.5 12.5t6.5 14t7.5 14.5q6 9 16 18t23.5 19.5t20.5 16.5v67h-216v-71h127q-48 -59 -62 -94z" />
    <glyph glyph-name="uniE63C" unicode="&#xe63c;" 
d="M614 -123h4q2 0 8.5 1.5t11 4.5t8.5 10t4 16q0 3 -0.5 8t-9 15.5t-25.5 15.5h-3q-3 0 -9.5 2.5t-11.5 6t-9 10.5t-4 16q-3 0 -7 0.5t-12.5 8t-12.5 22.5v39q2 1 9.5 0t16.5 3.5t9 14.5q0 16 -34 16v36q5 0 12.5 0.5t29 9.5t39.5 27q6 3 17 10t43 33t60.5 56.5t63 82.5
t59 109.5t40.5 138t15 167.5q0 3 -0.5 7.5t-3.5 16.5t-9 21t-19.5 16.5t-32.5 7.5h-44q-3 0 -8.5 -1t-14 -10t-8.5 -24h-32v105h-484v-105h-32q0 15 -8 24t-15 10l-8 1h-44q-54 0 -64 -55l-1 -14q-1 -87 14.5 -167.5t41.5 -138.5t58.5 -108.5t64 -83t59 -56t43.5 -34
t17 -9.5q18 -18 38.5 -27t31.5 -10t11 0v-36q-34 0 -34 -16q1 -22 35 -18v-39q-4 -15 -12.5 -22.5t-12.5 -8t-6 -0.5q-1 -15 -10 -23.5t-19 -10.5l-9 -1q-35 -10 -35 -39q0 -15 9 -23t18 -8l9 -1h204zM165 674v80q0 2 0.5 4.5t2.5 8.5t5.5 11t11.5 9t18 4v-5q0 -3 2.5 -11
t9.5 -12t20 -8t36 1q-1 -12 -1.5 -33.5t2 -81.5t8.5 -114.5t22.5 -120t41.5 -111.5v1q-79 90 -131 204q-41 92 -48 174zM821 791q17 0 26.5 -9t10.5 -18l1 -9v-81q-13 -160 -147 -339l-32 -40q25 46 41.5 110t22.5 123t8.5 111.5t1.5 84.5l-1 32q22 -3 36 -0.5t20.5 8
t9 11.5t2.5 11v5zM322 790q-8 0 -13 4.5t-5 8.5l-1 5q0 8 5.5 13t13.5 5h380q8 0 13.5 -5t5.5 -13q0 -2 -0.5 -5t-5.5 -8t-13 -5h-380z" />
    <glyph glyph-name="uniE63D" unicode="&#xe63d;" 
d="M26 877h972v-152h-972v152zM964 274l-452 451l-452 -451h231v-381h442v381h231z" />
    <glyph glyph-name="uniE63E" unicode="&#xe63e;" 
d="M484 355h46q64 0 110 45.5t46 109.5v166q0 65 -46 110.5t-110 45.5h-46q-64 0 -109.5 -45.5t-45.5 -110.5v-166q0 -64 45.5 -109.5t109.5 -45.5zM676 271q-53 29 -168.5 29t-169.5 -29q-70 -30 -129 -95.5t-59 -117.5v-50q0 -30 21 -51t51 -21h571q30 0 51 21t21 51v50
q0 52 -59 117.5t-130 95.5z" />
    <glyph glyph-name="uniE63F" unicode="&#xe63f;" 
d="M346 739v-1q-112 -1 -194 -86t-84 -200h-1l-2 -610l611 -2q114 2 197.5 83.5t85.5 193.5l2 620zM841 117q-2 -67 -48 -112t-114 -47h-498l3 492q1 71 47.5 121t114.5 50h497zM603 196q9 -8 21 -8q13 0 22 9t9 22q0 17 -14 26v1q-11 7 -25 14q58 48 58 123
q0 67 -47.5 114.5t-114 47.5t-114 -47.5t-47.5 -114.5q0 -37 15.5 -69.5t42.5 -55.5q-57 -28 -91.5 -77.5t-39.5 -116.5v0v-1v0q0 -12 9 -20.5t22 -8.5t21.5 8.5t9.5 20.5q7 69 56 113t117 44q49 0 90 -24zM512.5 284q-41.5 0 -70.5 29t-29 70t29 70t70.5 29t70.5 -29
t29 -70t-29 -70t-70.5 -29zM774 247q-8 7 -18 7t-17 -7l-134 -134q-11 -11 -27 -38t-10 -33l9 -8q6 -7 33 9t38 27l134 135q7 7 7 17t-7 17z" />
    <glyph glyph-name="uniE640" unicode="&#xe640;" 
d="M888 126q-3 53 -28 100t-66 78v58v68v71q0 85 -53.5 150t-135.5 82v5q0 39 -27.5 66.5t-66.5 27.5t-66.5 -27.5t-27.5 -66.5v-5q-82 -17 -135.5 -82t-53.5 -150v-71v-68v-58q-41 -31 -66 -78t-28 -100h94v-1h237h92h237v1h94zM484 -63h54q61 0 107 40.5t54 101.5h-375
q7 -61 53 -101.5t107 -40.5z" />
    <glyph glyph-name="uniE641" unicode="&#xe641;" 
d="M512 723q-92 0 -170 -45t-123 -123t-45 -170t45 -169.5t123 -123t170 -45.5t170 45.5t123 123t45 169.5t-45 170t-123 123t-170 45zM651 404v-72h-97v-29h97v-73h-97v-86h-84v86h-100v73h100v29h-100v72h75l-104 194h95l77 -161l79 161h91l-104 -194h72zM512 871
q-99 0 -188.5 -38.5t-154.5 -103.5t-103.5 -155t-38.5 -188.5t38.5 -188.5t103.5 -155t154.5 -103.5t188.5 -38.5t188.5 38.5t154.5 103.5t103.5 154.5t38.5 188.5t-38.5 189t-103.5 155t-154.5 103.5t-188.5 38.5zM512 -30q-113 0 -208.5 55.5t-151 151.5t-55.5 208.5
t55.5 208t151 151t208.5 55.5t208.5 -55.5t151 -151t55.5 -208.5t-55.5 -208.5t-151 -151t-208.5 -55.5z" />
    <glyph glyph-name="uniE642" unicode="&#xe642;" 
d="M410 355q43 0 73.5 30t30.5 73v1q0 43 -30.5 73t-73.5 30q-42 0 -72.5 -30t-30.5 -73v-1q0 -43 30.5 -73t72.5 -30zM307 286h415v-56h-415v56zM307 154h218v-56h-218v56zM359 737q-113 -1 -195 -86.5t-84 -199.5h-1l-1 -610l587 -2q114 2 197 83t86 194l1 620zM196 449
q2 71 48 121t114 50h474l-2 -466h-219v-197h-417zM673 -43v136h155q-10 -58 -52.5 -95.5t-102.5 -40.5z" />
    <glyph glyph-name="uniE643" unicode="&#xe643;" 
d="M920 474q-39 85 -109 148q-20 18 -46.5 16.5t-44 -21.5t-16 -46.5t20.5 -44.5q50 -44 78 -105q29 -63 29 -133q0 -133 -93.5 -226.5t-226.5 -93.5t-226.5 93.5t-93.5 226.5q0 70 29 133q28 61 78 105q19 18 20.5 44.5t-16 46.5t-44 21.5t-46.5 -16.5q-70 -63 -109 -148
q-40 -88 -40 -186q0 -91 35 -174q34 -81 96 -143t143 -96q83 -35 174 -35t174 35q81 34 143 96t96 143q35 83 35 174q0 98 -40 186zM512 288q27 0 45.5 18.5t18.5 45.5v320q0 26 -18.5 45t-45.5 19t-45.5 -19t-18.5 -45v-320q0 -27 18.5 -45.5t45.5 -18.5z" />
    <glyph glyph-name="uniE644" unicode="&#xe644;" 
d="M345 832q-112 -1 -193 -86.5t-83 -199.5h-1v-609h608q113 2 195.5 83t84.5 193v619h-611zM678 44h-499v500h1q1 70 48.5 119.5t116.5 49.5h494v-500q-2 -68 -48 -117.5t-113 -51.5zM702 579zM634 579q0 28 20 48t48.5 20t48.5 -20t20 -48t-20 -48t-48.5 -20t-48.5 20
t-20 48zM560 410l-33 -43l-65 117q-15 26 -35 26t-34 -26l-174 -311q-2 -3 -2 -7l-15 -24h33h122h262h180l-203 268q-7 10 -17.5 10t-18.5 -10z" />
    <glyph glyph-name="uniE645" unicode="&#xe645;" 
d="M583 430l13 12l22 -19l-10 -10h-36v-44h2l17 16l31 -25l-10 -10v-88l-35 -4v12h-41v-10l-35 -4v89l-6 -5h-25v-29q10 7 19 14l8 -16q-20 -25 -48 -49l-15 32q1 1 3 2v46h-26l-4 17h30v26h-12v3l-11 -11l-12 11q20 35 35 87l35 -7q-5 -15 -12 -29h21l10 8l18 -16l-9 -10
h-50q-7 -11 -14 -19h36l10 8l18 -16l-10 -9h-20v-26h7l10 8l14 -11v26l35 -4v-7h1v103l35 -5v-37h11zM536 287h41v65h-41v-65zM512 850l144 -283l316 -47l-228 -220l9 -42q-28 -9 -80 -17l-17 85l143 139l-198 30l-89 177l-93 -177l-198 -30l147 -139l-17 -85q-15 3 -41.5 9
t-38.5 8l9 43l-233 224l321 42zM787 81l29 -156l-160 126q92 17 131 30v0zM364 56l-165 -131l34 160q51 -22 131 -29v0zM102 423q76 -68 152 -110q-63 -8 -71 -29v-102q-95 54 -182 127l101 13v101v0zM922 423q-76 -68 -152 -110h4q63 -8 72 -29v-102q80 46 177 127
q-55 7 -101 13v101zM195 275q39 -26 127 -42.5t194 -16.5q99 0 181 14t128 37v-152q-45 -26 -126.5 -40.5t-182.5 -14.5q-107 0 -195 17.5t-126 45.5v72v80zM195 275z" />
    <glyph glyph-name="uniE646" unicode="&#xe646;" horiz-adv-x="1027" 
d="M486 493l45 -7q-3 -5 -5 -9q17 -12 37 -22q25 -12 58 -21l-25 -36q-15 8 -28 17l-10 -9h-30v-31h49l14 13l22 -20l-10 -10h-33l26 -14q-17 -26 -38 -44h22l13 12l23 -19l-10 -10h-198l-4 17h45q-12 28 -25 48l14 10h-28l-4 17h83v31h-35l-2 9q-18 -9 -41 -15l-9 17
q62 31 84 76zM455 300h34v58h-42q17 -15 36 -38zM468 423h67l10 10q-17 13 -31 28q-13 -15 -30 -27q-8 -6 -16 -11zM528 300h20l-12 11q9 11 16 27q6 11 10 20h-34v-58zM511 850l144 -283l317 -47l-228 -220l8 -42q-28 -9 -80 -17l-17 85l143 139l-198 30l-89 177l-93 -177
l-198 -30l147 -139l-16 -85q-16 3 -42.5 9t-38.5 8l9 43l-233 224l321 42zM786 81l29 -156l-160 126q92 17 131 30v0zM363 56l-164 -131l33 160q51 -22 131 -29v0zM101 423q76 -68 152 -110q-63 -8 -71 -29v-102q-95 54 -182 127q68 8 101 13v101v0zM921 423
q-76 -68 -152 -110h4q63 -8 72 -29v-102q80 46 177 127q-54 7 -101 13v101zM194 275q39 -26 127 -42.5t194 -16.5q99 0 181 14t128 37v-152q-45 -26 -126.5 -40.5t-182.5 -14.5q-107 0 -195 17.5t-126 45.5v72v80zM194 275z" />
    <glyph glyph-name="uniE647" unicode="&#xe647;" 
d="M436 384h-9l-2 7q-5 -7 -11 -13l-12 11q18 34 32 85l33 -7q-5 -15 -12 -28h15l11 9l18 -17l-9 -10h-44q-6 -10 -12 -19h32l11 9l19 -17l-11 -10h-17v-25h9l11 8l13 -12v117l34 -4v-9h37l15 14l29 -23l-9 -9v-85l-34 -4v9h-11q7 -16 15 -30q7 8 13 20l28 -17
q-12 -14 -27 -21q12 -12 29 -22l-23 -33q-42 30 -55 103h-7v-67q9 3 20 7l8 -19q-28 -14 -57 -23l-11 28h6v60l-6 -6h-27v-30q11 6 23 14l7 -15q-22 -25 -52 -49l-16 33q4 2 6 2v45h-26l-4 18h30v25zM535 419h38v22h-38v-22zM535 379h38v22h-38v-22zM511 850l144 -283
l317 -47l-229 -220l9 -42q-28 -9 -80 -17l-17 85l143 139l-198 30l-89 177l-93 -177l-198 -30l147 -139l-16 -85q-16 3 -42.5 9t-38.5 8l9 43l-233 224l321 42zM786 81l29 -156l-160 126q92 17 131 30v0zM363 56l-164 -131l33 160q51 -22 131 -29v0zM101 423
q76 -68 152 -110q-63 -8 -71 -29v-102q-95 54 -182 127q68 8 101 13v101v0zM921 423q-76 -68 -152 -110h4q63 -8 72 -29v-102q80 46 177 127q-54 7 -101 13v101zM194 275q39 -26 127 -42.5t194 -16.5q99 0 181 14t128 37v-152q-45 -26 -126.5 -40.5t-182.5 -14.5
q-107 0 -195 17.5t-126 45.5v152zM194 275z" />
    <glyph glyph-name="uniE648" unicode="&#xe648;" horiz-adv-x="1025" 
d="M493 471l29 -4v-5h59l13 12l26 -19l-8 -9v-160q0 -21 -19 -21h-17q0 18 -17 18v14q11 -2 21 -2q4 0 4 6v83l-6 -5v-66l-22 -2v12h-7v-14l-21 -3v95l21 -2v-7h4l11 11l19 -15v30l-3 -4h-51l-4 15h35l10 10l13 -12v17h-61v-175l-29 -4v83l-4 -4h-23v-35q10 4 20 9l7 -15
q-20 -19 -48 -38l-15 32q1 1 4 1v46h-19l-4 16h23v26h-8v3q-5 -6 -10 -11l-11 11q16 34 28 85l35 -7q-6 -15 -12 -29h13l10 9l14 -13v37zM448 422q-6 -11 -13 -20h23l11 9l18 -16l-10 -9h-11v-26h5l10 9l12 -11v69l-5 -5h-40zM556 340v36h-7v-37h7v1zM513 856l144 -284
l317 -47l-228 -220l8 -43q-28 -9 -80 -17l-17 85l144 140l-199 30l-89 178l-94 -178l-199 -30l148 -140l-16 -84q-16 2 -43 8.5t-38 8.5l9 42l-233 225l321 42zM788 85l30 -157l-161 127q92 17 131 30v0zM364 59l-165 -131l34 161q50 -23 131 -30v0zM102 428
q75 -69 152 -110q-63 -9 -72 -30v-102q-95 54 -182 127q49 6 102 13v102v0zM923 428q-75 -69 -152 -110h4q64 -9 72 -30v-102q82 47 178 127q-53 7 -102 13v102zM195 280q39 -26 127.5 -43t194.5 -17q99 0 181 14t128 37v-153q-45 -25 -126.5 -40t-182.5 -15
q-108 0 -196 17.5t-126 46.5v72v81zM195 280z" />
    <glyph glyph-name="uniE649" unicode="&#xe649;" 
d="M498 103l-304 314l78 63l176 -139q45 54 100 111.5t153 139.5t199 145l19 -43q-141 -131 -258.5 -303t-162.5 -288zM882 446q5 -30 5 -61q0 -102 -50.5 -188.5t-136.5 -136.5t-188 -50t-188.5 50t-136.5 136.5t-50 188.5t50 188t136.5 136.5t188.5 50.5q73 0 141 -28v75
q-68 23 -141 23q-91 0 -173 -35q-80 -34 -141.5 -95.5t-95.5 -141.5q-35 -83 -35 -173.5t35 -172.5q34 -80 95.5 -142t141.5 -95q82 -35 172.5 -35t173.5 35q80 33 141.5 95t95.5 142q35 82 35 173q0 31 -4 61h-71z" />
    <glyph glyph-name="uniE64A" unicode="&#xe64a;" 
d="M938 224h-429v107h-267v428h375v-107h321l-107 -214zM135 -44q-22 0 -38 15.5t-16 38.5v749q0 23 16 38.5t38 15.5t37.5 -15.5t15.5 -38.5v-749q0 -23 -15.5 -38.5t-37.5 -15.5z" />
    <glyph glyph-name="uniE64B" unicode="&#xe64b;" 
d="M319 753q12 -8 24 -19.5t22 -26.5q5 -8 12 -17.5t13 -19.5q7 -11 14 -23h204q7 10 13 21q5 9 10.5 17.5t10.5 15.5q10 14 20 26.5t29 23.5q8 5 13 13t6.5 16t-1.5 15.5t-13 11.5q-9 2 -15.5 1.5t-12.5 -3.5q-7 -2 -14 -5t-16.5 -3t-16 3.5t-12.5 8.5t-11 10q-6 5 -16 8
q-20 8 -31.5 3t-23.5 -16q-10 -9 -16 -13q-3 -2 -5 -2q-6 3 -11 7q-5 2 -9 5.5t-8 8.5q-8 8 -24 10.5t-29 -5.5q-16 -11 -23 -18t-21 -10q-8 -2 -17 1l-20 6q-9 3 -18 4t-16 -4q-14 -11 -9 -26.5t18 -24.5zM853 284q-7 49 -26 86.5t-44 65.5t-49 49q-28 23 -50 44.5
t-37 37.5q-17 19 -29 35h-222q-13 -17 -30 -36q-14 -16 -34.5 -36.5t-46.5 -42.5q-29 -26 -54.5 -58.5t-42 -71.5t-23 -83t2.5 -92q8 -44 32.5 -87.5t66.5 -79t102 -57.5t138 -22q76 0 136 19t103 51.5t69.5 76.5t35.5 93q9 60 2 108zM664 104q-8 -6 -22 -6h-93v-26
q0 -12 -10 -23.5t-26 -10.5q-16 0 -26.5 7.5t-12.5 26.5v26h-90q-14 0 -22.5 7.5t-7.5 17.5q0 12 9 19.5t21 7.5h90v47h-90q-14 0 -22 8t-8 18.5t9 19.5t21 9h90l2 28q-24 24 -44 46q-18 19 -32 34l-20 19q-7 8 -12.5 22t5.5 28q12 14 29.5 8t27.5 -16q6 -6 19 -20l64 -63
q22 20 41 38q16 15 32 29t23 19q12 11 26.5 11t24.5 -12q17 -20 -14 -47q-8 -7 -24 -23q-15 -16 -32 -33q-18 -20 -41 -41v-25h87q18 0 27 -9t9 -19q0 -12 -8 -20.5t-27 -7.5l-87 -1l-1 -46h85q38 0 38 -28q1 -13 -8 -19z" />
    <glyph glyph-name="uniE64C" unicode="&#xe64c;" 
d="M944 499l-46 41q-14 12 -33 10.5t-32 -14.5l-383 -433l-45 -165l159 64l384 432q13 14 11.5 33t-15.5 32zM810 610v109q0 47 -32.5 79.5t-78.5 32.5h-521q-47 0 -79.5 -32.5t-32.5 -79.5v-670q0 -46 32.5 -78.5t79.5 -32.5h150l5 19l45 165l4 17l12 13l384 433
q12 14 32 25zM608 -61l-3 -1h94q46 0 78.5 32.5t32.5 78.5v118l-190 -215z" />
    <glyph glyph-name="uniE64D" unicode="&#xe64d;" horiz-adv-x="1031" 
d="M552 371h-461q-58 0 -87 61q-3 6 -3 2v-12q2 -35 2 -72q0 -42 -3 -72v-5l1 3q24 60 90 60h461q8 0 13 5t5 12.5t-5 12.5t-13 5zM1027 350q0 37 2 72l-1 14l-2 -4q-29 -61 -88 -61h-187q-8 0 -13 -5t-5 -12.5t5 -12.5t13 -5h187q67 0 91 -60q1 -3 1 -2v4q-3 30 -3 72z" />
    <glyph glyph-name="uniE64E" unicode="&#xe64e;" 
d="M512 -11q11 6 39.5 16.5t59 21.5t69 31.5t72.5 45t67 65t55 89t33 118.5t6 152q-2 27 3 48.5t13 34t16 21t14 11.5l6 2l-35 96q-53 -31 -128.5 -39t-155.5 13.5t-134 70.5q-54 -49 -134 -70.5t-155.5 -13.5t-128.5 39l-35 -96q2 0 6 -2.5t13.5 -11.5t17 -20.5t12.5 -33.5
t3 -49q-6 -82 5.5 -152t33.5 -118.5t55 -89t67 -65t72.5 -45t69 -31.5t59 -21.5t39.5 -16.5z" />
    <glyph glyph-name="uniE64F" unicode="&#xe64f;" 
d="M818 543q-18 19 -18 49q0 32 23.5 55.5t56 23.5t56 -23.5t23.5 -55.5q0 -31 -20 -54t-51 -27l-120 -328q-146 19 -257 19q-48 0 -93.5 -3.5t-94.5 -9t-68 -6.5l-117 329q-30 0 -52 24t-22 56q0 33 24 57t56.5 24t55.5 -24t23 -57q0 -18 -19 -48l115 -132l48 234
q-24 1 -43.5 24t-19.5 54q0 35 25 60t60 25q34 0 59 -25t25 -60q0 -20 -10 -39.5t-28 -28.5l78 -231h3l75 231q-33 26 -33 68q0 35 24.5 60t60.5 25q34 0 59 -25t25 -60q0 -29 -15.5 -49.5t-42.5 -28.5l39 -234zM189 -37v29q0 10 1.5 32t6 35t11 28.5t18.5 23.5t27 9
q19 1 68 6.5t94.5 9t93.5 3.5q111 0 257 -19q15 -2 26.5 -9t18.5 -15t12 -22.5t7.5 -24.5t4 -29.5t1.5 -27.5v-29h-647z" />
    <glyph glyph-name="uniE650" unicode="&#xe650;" 
d="M509.5 117q36.5 0 63 26t26.5 63t-26.5 63t-63 26t-62.5 -26t-26 -63t26 -63t62.5 -26zM421 117l-89 -178h355l-89 178h-177zM734 823v6h-37h-10h-11h-333h-11h-10h-42q-1 -4 -1 -7q-67 -18 -110 -73.5t-43 -127.5q0 -85 60 -146t145 -61q18 -53 64 -86t102 -33h20
q55 0 101.5 33t64.5 86h4q85 0 146 60.5t61 146.5q0 73 -45 129.5t-115 72.5zM198 621q0 40 21.5 73.5t56.5 49.5q1 -13 3 -25l38 -232q-51 6 -85 44.5t-34 89.5zM697 487l37 232q2 13 3 27q38 -15 61 -49t23 -76q0 -53 -36 -92t-88 -42z" />
    <glyph glyph-name="uniE651" unicode="&#xe651;" 
d="M502 587l-38 52q-269 -142 -334 -513h167q13 295 205 461zM887 587l-39 52q-269 -142 -333 -513h180q12 295 192 461z" />
    <glyph glyph-name="uniE652" unicode="&#xe652;" 
d="M6 525h939l72 -145l-72 -144h-939v289z" />
    <glyph glyph-name="uniE653" unicode="&#xe653;" 
d="M813 835v-700q0 -19 -12.5 -39t-29.5 -30l-217 -121q-17 -9 -41 -9t-41 9l-217 121q-17 10 -29.5 30t-12.5 39v700h600z" />
    <glyph glyph-name="uniE654" unicode="&#xe654;" 
d="M335 640h-13h179q-64 -345 -332 -510l-38 64q153 140 204 446zM718 640h165q-64 -357 -331 -510l-38 64q178 165 204 446z" />
    <glyph glyph-name="uniE655" unicode="&#xe655;" 
d="M945 242h-936v293h936l74 -147zM16 249h925l70 139l-70 140h-925v-279z" />
    <glyph glyph-name="uniE656" unicode="&#xe656;" 
d="M934 372q0 -92 -24.5 -169.5t-74 -137t-131 -93.5t-188.5 -34q-92 0 -164.5 23t-120 62t-79 95t-45 118.5t-13.5 135.5v343q0 49 35 84t84 35t84 -35t35 -84v-343q0 -195 184 -195q81 0 130.5 48t49.5 147v343q0 49 35 84t84.5 35t84 -35t34.5 -84v-343z" />
    <glyph glyph-name="uniE657" unicode="&#xe657;" 
d="M433 124h-15h-1q3 -4 8 -6q5 3 8 6zM985 563l-48 52l-16 68q-6 29 -32 56.5t-55 36.5l-67 20l-47 51q-21 23 -57 33.5t-65 4.5l-69 -16l-67 20q-29 9 -65.5 0.5t-58.5 -29.5l-51 -47l-68 -16q-30 -7 -57.5 -32.5t-35.5 -54.5l-21 -67l-51 -48q-22 -21 -33 -57t-4 -65
l16 -68l-21 -67q-8 -29 0 -65.5t29 -59.5l48 -51l16 -68q7 -30 32.5 -57t54.5 -36l67 -21l48 -51q20 -22 56 -33t66 -4l68 16l67 -20q29 -9 65.5 -0.5t58.5 28.5l51 48l68 16q30 7 57.5 32.5t36.5 54.5l20 67l51 48q22 21 33 56.5t4 65.5l-15 68l20 67q9 29 0.5 65.5
t-29.5 58.5zM995 437l-19 -64l15 -66q7 -28 -3.5 -62.5t-32.5 -54.5l-49 -46l-20 -65q-8 -28 -34.5 -52.5t-54.5 -31.5l-66 -15l-49 -46q-22 -20 -57 -28t-63 0l-64 20l-66 -16q-29 -6 -63.5 4.5t-54.5 31.5l-46 50l-64 19q-28 9 -52.5 35t-31.5 55l-15 66l-46 49
q-20 21 -28.5 56.5t0.5 63.5l19 64l-15 66q-6 28 4.5 62.5t31.5 54.5l49 46l20 65q8 28 34.5 52.5t55.5 31.5l65 15l50 46q21 20 56 28t63 0l65 -20l65 15q29 7 63.5 -3.5t54.5 -31.5l46 -50l65 -19q28 -9 52.5 -35.5t30.5 -54.5l16 -66l46 -49q20 -21 28 -56.5t-1 -63.5z
M249 473l-7 -2q-23 -73 -6 -147q7 -29 20 -57l7 2q-13 27 -20 56q-17 75 6 148zM791 392l7 1q-1 30 -8 59q-17 75 -70 130l-7 -1q53 -55 70 -130q7 -29 8 -59zM682 510q-3 12 -13.5 23.5t-22.5 15.5l-154 47q-12 3 -27 -0.5t-24 -11.5l-118 -110q-9 -9 -13.5 -23.5
t-1.5 -27.5l36 -156q3 -13 13.5 -24t22.5 -15l154 -47q12 -3 27 0.5t25 11.5l117 110q9 9 13.5 23.5t1.5 26.5zM488.5 287.5q-37.5 -8.5 -70.5 11.5t-41 58l-16 69q-2 9 2.5 16.5t13.5 9.5t16.5 -2.5t10.5 -13.5l16 -69q4 -20 21 -30.5t37 -6t30.5 21.5t6.5 37l-16 69
q-2 9 2.5 16.5t13.5 9.5t17 -2.5t10 -13.5l16 -69q8 -38 -12 -70.5t-57.5 -41zM649 325q-9 -2 -16.5 2.5t-9.5 13.5l-32 138q-2 9 2.5 16.5t13.5 10t17 -2.5t10 -14l32 -138q2 -9 -3 -16.5t-14 -9.5zM508 123l-2 1h-1h-2h-1l-1 -1q0 -12 -1 -25q-3 -3 -6 -4.5t-6 -1.5
q-2 0 -4 1t-3 2.5t-1 3.5v5l2 20v1h-1l-1 1h-1h-2h-1h-1v-1q-2 -10 -3 -21v-7q0 -3 2 -5t4.5 -3.5t7.5 -1.5q4 -1 7.5 0.5t7.5 4.5v-2v-3v0l2 -1h1h2h1l1 1v36v0zM537 124l-1 1h-1h-1l-2 -1h-1h-1v-1q1 -17 3 -35l1 -1h1h2h2l1 1h1v1q-2 17 -4 35zM533 131.5q2 0.5 3 1t1 3
t-1 3t-3.5 0.5t-3.5 -1t-0.5 -3t1.5 -3t3 -0.5zM572.5 100.5q-1.5 0.5 -4 0t-3.5 -1.5t-0.5 -4t1.5 -3.5t4 0t4 1.5t0.5 4t-2 3.5zM626 115v2h-1l-1 1l-1 -1q-1 -2 -2 -3l-3 -2q-1 -2 -4 -3t-5 -1t-4 1.5t-3.5 3.5t-2.5 5q-3 7 -1 11t6 6q3 1 5 1h3q2 -1 3 -1h1l1 1
q0 1 -1 2v1l-1 1l-1 1h-2q-1 1 -2.5 0.5t-3.5 -0.5t-3 -1q-4 -1 -6.5 -3t-4.5 -5t-2 -7t1 -9t3.5 -8t5.5 -4.5t7 -1.5t8 2q2 0 4 1t3 3l3 2l1 2l1 1v1zM668 156q-3 3 -5 4.5t-4.5 2.5t-5 0.5t-6.5 -2.5q-3 -1 -5 -4t-3 -8l-2 4l-1 1h-1l-2 -1l-1 -1h-1v-1v-1q8 -15 16 -31h1
h1l2 1l2 1h1v1v1q-6 10 -12 21q1 5 3 7.5t4 4.5q2 1 3.5 1t3 -0.5t2.5 -2.5l4 -3q5 -9 11 -18h1l1 1l2 1l1 1l1 1h1l-1 1q-5 9 -11 18zM532 835q-61 2 -120 -12q-148 -34 -243.5 -151t-101.5 -265q-3 -60 11 -120q35 -148 151.5 -243.5t265.5 -101.5q60 -2 119 11
q149 35 244 151.5t101 265.5q3 60 -11 119q-34 149 -151 244.5t-265 101.5zM945 371q-6 -144 -98.5 -257t-235.5 -146q-57 -13 -116 -11q-143 6 -256 98t-146 236q-14 57 -11 115q5 144 97.5 257t236.5 146q57 13 115 11q144 -6 256.5 -98t146.5 -236q13 -57 11 -115z
M921 406l-54 -2l-2 26l51 6l-1 10l-51 -7q-2 12 -5 25l53 12l-3 9l-52 -12q-3 13 -7 25l49 16l-3 9l-49 -17q-4 12 -9 23l49 22l-4 9l-49 -22q-5 11 -11 23l45 25l-5 9l-45 -26q-7 11 -14 21l44 31l-5 8l-44 -31l-16 20l39 34l-6 7l-39 -34l-18 18l37 39l-7 7l-37 -39
q-9 8 -19 16l31 41l-7 6l-32 -41q-10 7 -21 14l29 46l-8 5l-29 -46q-10 7 -22 13l23 46l-8 4l-23 -46q-11 5 -23 10l19 50l-9 3l-19 -50q-11 4 -24 8l14 50l-9 2l-14 -50q-12 4 -24 6l8 53l-9 1l-9 -53q-13 2 -25 3l3 52l-9 1l-4 -52h-4q-11 1 -21 0l-2 54h-9l1 -54
q-12 0 -25 -2l-7 51l-9 -1l7 -51q-13 -2 -25 -5l-12 53l-10 -2l13 -53q-13 -3 -25 -7l-17 49l-9 -3l17 -49q-11 -4 -23 -9l-22 49l-8 -4l22 -49q-12 -5 -23 -11l-26 45l-8 -5l26 -45q-11 -6 -21 -13l-32 43l-7 -5l31 -44q-11 -8 -20 -16l-34 39l-7 -6l34 -39q-10 -9 -19 -18
l-39 37l-6 -7l39 -37q-9 -9 -17 -19l-41 31l-6 -7l42 -32q-8 -10 -15 -20l-45 28l-5 -8l45 -28q-6 -11 -12 -23l-47 23l-4 -8l47 -23q-6 -11 -10 -22l-50 19l-4 -9l50 -19q-4 -12 -7 -25l-50 14l-3 -9l50 -14q-3 -12 -5 -24l-53 9l-2 -10l53 -9q-2 -12 -3 -25l-52 4v-10
l52 -3q-1 -4 -1 -5v-21l-54 -2l1 -9l53 1q1 -12 2 -25l-51 -7l1 -9l52 7q1 -13 4 -25l-52 -12l2 -9l52 12q3 -13 7 -25l-49 -16l3 -9l49 16q4 -11 9 -22l-49 -23l4 -8l49 22q5 -12 12 -23l-45 -26l4 -8l45 26q7 -11 14 -21l-44 -31l6 -8l43 31l16 -20l-39 -34l6 -7l39 34
q9 -10 18 -19l-36 -39l6 -6l37 39q10 -9 20 -16l-32 -42l8 -5l31 41q10 -8 21 -15l-29 -45l8 -5l29 45l22 -12l-23 -46l9 -5l23 47q10 -5 22 -10l-19 -50l9 -4l19 51q12 -5 24 -8l-13 -50l9 -3l13 50q12 -3 25 -5l-9 -53l9 -2l9 53q13 -2 25 -3l-3 -51l9 -1l4 52h5
q10 -1 21 -1l1 -53h10l-2 54q13 0 25 2l7 -52l9 2l-6 51q12 2 25 4l12 -52l9 2l-12 53q12 3 24 7l17 -50l9 3l-17 50q12 4 23 8l22 -49l9 4l-22 49l22 12l26 -45l8 5l-25 45q11 6 21 13l31 -44l8 6l-32 44q11 7 20 15l34 -39l8 7l-34 39q9 8 18 18l39 -37l7 7l-39 37
q8 9 16 19l41 -32l6 8l-41 31q7 10 14 21l46 -28l5 8l-46 28q7 11 12 22h1l46 -23l4 9l-46 23q5 11 9 22l51 -19l3 9l-50 19l8 24l50 -13l2 9l-50 13q3 13 6 25l53 -9l1 10l-53 8q2 13 3 26l52 -4v10l-51 3v5v21l54 2v9zM852 374q-4 -112 -76.5 -201t-185.5 -115
q-45 -11 -91 -9q-113 5 -201.5 77.5t-114.5 185.5q-11 45 -9 90q5 113 77.5 202t184.5 115q45 10 91 8q113 -4 201.5 -76.5t115.5 -185.5q10 -45 8 -91zM425 130.5q-10 -2.5 -7.5 -12.5t12.5 -7.5t7.5 12.5t-12.5 7.5zM705.5 195.5q-10.5 -2.5 -8 -12.5t12.5 -7.5t8 12.5
t-12.5 7.5zM374 151q-10 -2 -7.5 -12.5t12.5 -8t7.5 12.5t-12.5 8zM742 236.5q-10 -2.5 -7.5 -12.5t12.5 -7.5t7.5 12.5t-12.5 7.5zM330 180.5q-10 -2.5 -8 -12.5t12.5 -7.5t8 12.5t-12.5 7.5zM769.5 282.5q-10.5 -2.5 -8 -12.5t12.5 -7.5t8 12.5t-12.5 7.5zM785 330
q-10 -2 -7.5 -12.5t12.5 -8t7.5 12.5t-12.5 8zM295 216q-10 -2 -8 -12t12.5 -8t8 12t-12.5 8zM428 650q1 -4 5 -5l19 -6q3 -1 6 2l14 13q3 3 2 6l-4 20q-1 3 -5 5l-19 5q-3 1 -6 -1l-14 -14q-3 -2 -2 -6zM336 606q0 -2 2 -2l12 -4q2 0 3 1l9 8q2 2 1 4l-3 11q0 2 -2 3l-11 3
q-3 1 -4 0l-9 -8q-1 -2 -1 -4zM549 656q1 -2 3 -3l11 -3q2 -1 4 1l8 8q2 1 1 3l-2 12q-1 2 -3 2l-11 4q-2 1 -4 -1l-8 -8q-2 -1 -2 -4zM621 638l6 -2l2 1l5 4l1 3l-2 6l-1 2l-7 2l-2 -1l-5 -4v-3l1 -6zM301 564l7 -2l2 1l5 4v2l-1 7l-2 1l-6 2h-2l-5 -5l-1 -2l2 -6z" />
    <glyph glyph-name="uniE658" unicode="&#xe658;" 
d="M993 534l-45 53l-12 69q-6 30 -30 58.5t-53 38.5l-65 24l-45 53q-20 24 -55 36.5t-65 7.5l-69 -13l-66 24q-28 11 -65 4t-60 -26l-53 -45l-69 -12q-30 -6 -58.5 -30t-39.5 -53l-23 -65l-54 -45q-23 -20 -36 -55t-7 -65l12 -69l-24 -66q-10 -28 -3.5 -65t26.5 -60l45 -53
l12 -69q5 -30 29.5 -58.5t52.5 -39.5l66 -23l45 -54q19 -23 54.5 -36t65.5 -7l68 12l66 -24q29 -10 65.5 -3.5t60.5 26.5l53 45l69 12q30 5 58.5 29.5t38.5 52.5l24 66l53 45q24 19 36.5 54.5t7.5 65.5l-13 68l24 66q11 29 4 65.5t-26 60.5zM997 407l-23 -63l12 -66
q5 -29 -7.5 -63t-34.5 -53l-52 -43l-22 -63q-10 -28 -37.5 -51t-56.5 -28l-66 -12l-52 -44q-22 -18 -57.5 -24.5t-63.5 3.5l-63 23l-66 -12q-29 -5 -63 7t-53 35l-43 51l-63 23q-28 10 -51 37.5t-28 56.5l-12 66l-44 51q-18 23 -24.5 58.5t3.5 62.5l23 64l-12 66
q-5 29 7 62.5t35 52.5l51 44l23 63q10 27 37.5 50.5t56.5 28.5l66 12l52 43q22 19 57.5 25.5t62.5 -3.5l64 -23l66 12q29 5 62.5 -7.5t52.5 -34.5l44 -52l63 -22q27 -10 50.5 -38t28.5 -56l12 -67l43 -51q19 -22 25.5 -57.5t-3.5 -63.5zM691 171q-22 -19 -49 -33l5 -5
q26 14 49 33q58 49 84 121l-5 6q-25 -72 -84 -122zM334 595q59 49 135 61l-5 6q-76 -13 -134 -62q-23 -19 -41 -43l4 -5q19 24 41 43zM698 288q10 8 15 23t3 27l-28 158q-2 12 -12 24t-22 16l-151 55q-12 4 -27 1.5t-25 -10.5l-123 -104q-9 -8 -14.5 -22.5t-3.5 -26.5
l29 -158q2 -13 12 -25t22 -16l151 -54q11 -5 26.5 -2t24.5 11zM412 359.5q-25 29.5 -21.5 67.5t32.5 63l54 46q7 6 16 5t15 -8t5.5 -16t-7.5 -15l-55 -45q-15 -13 -16.5 -33.5t11.5 -36t33 -17t35 11.5l54 46q7 5 16.5 4.5t15 -7.5t5 -16t-7.5 -15l-54 -46q-30 -24 -68 -21
t-63 32.5zM518.5 233q-5.5 7 -5 16t7.5 15l108 91q7 6 16 5.5t15 -7.5t5 -16t-7 -15l-109 -91q-7 -6 -16 -5.5t-14.5 7.5zM275 267v1v1l-1 2l-1 1v1h-1q-11 -5 -23 -10q-4 1 -7 3t-4 5q-1 2 -1 4t1 3.5t2 2.5l5 3q9 3 19 7h1v1v1l-1 2l-1 1v1l-1 1q-11 -4 -20 -7
q-4 -2 -6.5 -3.5t-3.5 -4t-1 -5.5t2 -8q1 -3 4 -5.5t7 -4.5q-1 -1 -2 -1.5t-2 -0.5v-1v-2l1 -1v-2l1 -1h1zM288 245l-1 2h-1v1h-1q-15 -10 -30 -19v-1v-1l1 -2l1 -1l1 -1l1 -1v1q15 9 30 19v1v1zM301.5 250q0.5 1 -1 3t-2.5 2.5t-3 -1t-2 -2.5t1 -3t2 -2.5t3 1t2.5 2.5z
M279.5 205.5q-1.5 0.5 -3.5 -1t-2 -3t1.5 -4t3 -2.5t3.5 1.5t2 3t-1.5 3.5t-3 2.5zM336 176l2 2v1h1v1v1l-1 2q0 1 -0.5 2.5t-1.5 2.5l-3 3q-3 3 -6 4.5t-6.5 1.5t-7 -1.5t-7.5 -5.5q-3 -3 -4.5 -6.5t-2 -7t1.5 -7t5 -6.5q2 -1 3.5 -2.5t3.5 -2t4 -1.5h2h1l1 1l1 1l1 1v1v1
h-2q-1 1 -2.5 1t-3.5 1t-4 3t-3 4t-1 4.5t1 4.5t4 5q5 4 9.5 5t7.5 -3q2 -2 3 -3.5t2 -2.5v-3l1 -1zM377 156.5q-2 2.5 -5 4.5t-6.5 2.5t-7.5 -0.5l2 4h1l-1 1l-1 1l-2 1l-1 1l-1 -1q-10 -14 -21 -28v-1h1v-1l2 -1l2 -1l1 -1h1l14 20q4 1 7.5 1t5.5 -1t3 -2.5t1 -3
t-0.5 -3.5t-1.5 -5q-6 -9 -11 -17v-1v-1h1l2 -2h2l1 -1h1v1l10 18q2 4 3 6.5t0.5 5t-2.5 5zM854 671q-48 57 -112.5 95.5t-133.5 53t-142 7t-139 -38.5q-55 -25 -101 -64q-58 -49 -96 -113t-52.5 -133.5t-7 -142t37.5 -138.5q25 -55 64 -101q49 -58 113.5 -96t133.5 -52.5
t141.5 -7t139.5 37.5q54 25 101 64q57 49 95.5 113.5t53 133.5t7 141.5t-37.5 139.5q-26 54 -65 101zM791 54q-45 -38 -98 -63q-63 -29 -133.5 -36.5t-137.5 7t-129 51t-109 92.5q-38 45 -63 98q-29 64 -36 134.5t7 137t51 129t92 109.5q45 38 98 62q64 29 134.5 36.5
t137 -6.5t129 -51t109.5 -93q38 -45 62 -98q30 -64 37 -134t-7 -137t-51 -129t-93 -109zM858 461q-2 12 -6 24l51 16l-3 9l-51 -16q-4 12 -9 24l48 20l-4 9l-47 -20q-2 3 -2 4q-5 9 -10 19l47 26l-4 8l-47 -26l-14 22l43 29l-5 8l-43 -30q-7 11 -15 20l41 35l-6 7l-41 -34
l-18 18l36 37l-6 7l-36 -37q-9 8 -19 16l34 42l-8 6l-33 -42q-10 8 -21 15l29 43l-8 5l-29 -43q-10 7 -21 13l24 47l-8 5l-25 -48q-11 6 -23 11l19 48l-8 3l-20 -48q-12 5 -24 9l15 51l-9 3l-15 -52q-12 4 -25 6l10 51l-10 2l-9 -51q-12 2 -25 3l5 54h-10l-4 -53
q-13 1 -26 1v52l-10 -1l1 -51q-12 -1 -25 -2l-5 54l-10 -1l6 -54q-13 -1 -25 -4l-11 51l-9 -2l11 -51q-13 -3 -25 -6l-16 51l-9 -3l16 -51q-12 -4 -23 -9l-21 48l-8 -4l20 -48q-3 -1 -4 -1q-10 -5 -19 -10l-26 47l-8 -4l25 -47q-10 -7 -21 -14l-29 43l-8 -5l29 -43
q-10 -7 -20 -15l-34 41l-8 -6l35 -41q-10 -9 -19 -18l-37 36l-6 -6l37 -37q-9 -8 -17 -18l-41 34l-6 -8l42 -33q-8 -10 -15 -21l-44 28l-5 -7l43 -29q-6 -10 -12 -21l-48 24l-4 -8l47 -25q-5 -11 -10 -23l-48 19l-4 -8l48 -20l-8 -24l-52 15l-2 -9l51 -15q-3 -12 -5 -25
l-51 10l-2 -10l51 -9q-2 -12 -4 -25l-53 5l-1 -10l54 -4q-1 -13 -1 -26h-52v-10l52 1q0 -12 1 -25l-53 -5l1 -10l53 6q2 -13 4 -25l-50 -11l2 -9l50 11q3 -13 7 -25l-51 -16l2 -9l52 16l8 -24l-47 -20l4 -9l47 21q2 -3 2 -5q4 -9 9 -18l-47 -26l5 -8l47 25q6 -11 13 -21
l-42 -29l5 -8l43 29q7 -10 15 -20l-41 -35l6 -7l41 35q9 -10 17 -19l-36 -37l7 -6l36 37q9 -9 18 -17l-33 -41l7 -6l34 41l20 -14l-28 -44l8 -5l28 43l22 -12l-25 -48l9 -4l24 47q12 -5 23 -10l-19 -48l9 -4l19 48l24 -8l-14 -52l9 -2l15 51l24 -6l-9 -50l9 -2l10 51l24 -4
l-4 -53l9 -1l5 54q12 -1 25 -1l1 -52h9v52q12 0 24 1l6 -53l9 1l-5 53q12 2 25 4l10 -50l10 2l-11 50q12 3 24 7l16 -52l9 3l-16 51q13 5 24 9l20 -47l9 3l-20 48q3 1 4 2q9 4 19 9l26 -47l8 5l-26 47q11 6 22 13l29 -42l8 5l-30 43q11 7 20 15l35 -41l7 6l-34 41
q10 8 18 17l37 -36l7 7l-37 36l16 18l42 -33l6 7l-42 34q8 10 15 20l43 -28l5 8l-43 28q7 11 13 22l47 -25l5 9l-48 24q6 12 11 23l48 -19l3 9l-48 19q5 12 9 24l51 -15l3 10l-52 15q4 12 6 24l51 -9l2 9l-51 9q2 13 3 25l54 -4v9l-53 5q1 12 1 25l52 1v9h-52l-2 24l54 6
l-1 9l-54 -5q-1 12 -4 25l51 10l-2 9zM732 124q-36 -30 -77 -49q-101 -47 -213.5 -23t-187.5 113q-29 35 -49 77q-47 100 -22.5 213t112.5 187q35 30 77 49q100 48 213 23.5t187 -112.5q30 -36 49 -77q48 -101 23.5 -213.5t-112.5 -187.5zM243 330q8 7 1 14.5t-14.5 1
t-1 -14.5t14.5 -1zM415 126q-8 -7 -1.5 -15t14.5 -1t1.5 15t-14.5 1zM238 384.5q8 6.5 1 14.5t-15 1.5t-1 -14.5t15 -1.5zM467.5 112q-7.5 -7 -1 -15t14.5 -1t1 15t-14.5 1zM244 437q8 7 1 15t-14.5 1t-1 -15t14.5 -1zM521 108.5q-8 -6.5 -1.5 -14.5t14.5 -1.5t1.5 14.5
t-14.5 1.5zM570 116q-8 -7 -1 -14.5t14.5 -1t1 14.5t-14.5 1zM260 484.5q8 6.5 1 14.5t-15 1.5t-1 -14.5t15 -1.5zM708 552q1 -4 5 -5l18 -7q4 -1 7 1l15 13q3 3 2 6l-4 20q0 3 -4 5l-18 6q-4 2 -7 -1l-15 -13q-3 -2 -2 -6zM627 625q1 -2 3 -3l11 -4q2 -1 4 1l9 7q1 2 1 4
l-2 11q-1 2 -3 3l-11 4q-2 1 -3 0l-9 -8q-2 -1 -2 -4zM794 459q2 1 2 4l-2 11q-1 2 -3 3l-11 4q-2 1 -4 -1l-8 -7q-2 -2 -2 -4l2 -11q1 -3 3 -3l11 -4q2 -1 4 0zM799 406l-7 2l-2 -1l-5 -4l-1 -2l2 -6l1 -2l6 -2h2l5 4l1 2l-1 7zM576 643l6 -2h2l5 5l1 2l-1 6l-1 2l-7 2h-2
l-5 -4l-1 -2l2 -7z" />
    <glyph glyph-name="uniE659" unicode="&#xe659;" 
d="M926 580l-215 216q-31 31 -75.5 31t-75.5 -31l-415 -411q-22 -17 -29 -49l-52 -301q0 -45 24 -69.5t61 -24.5h12l301 53q33 7 49 29l415 411q33 32 33 73t-33 73zM454 76l-305 -53v0l53 301l305 301l253 -248zM869 491l-57 -61l-252 248l57 57q6 6 17 6t20 -6l215 -216
q9 -8 9 -16q0 -4 -9 -12zM869 491z" />
    <glyph glyph-name="uniE65A" unicode="&#xe65a;" 
d="M513 384q8 -3 16 0l159 112v7h-272q-33 0 -56 -20zM504 331l-167 112q-1 -5 -1 -10v-166h272q79 0 80 52v122l-150 -110q-10 -2 -17.5 -2t-12.5 1zM512 832q-91 0 -174 -35.5t-143 -95.5t-95.5 -143t-35.5 -174t35.5 -174t95.5 -143t143 -95t174 -35t174 35t143 95
t95.5 143t35.5 174t-35.5 174t-95.5 143t-143 95.5t-174 35.5zM746 318q-1 -45 -41 -76.5t-97 -32.5h-331v242q1 45 41.5 76.5t96.5 32.5h331v-242z" />
    <glyph glyph-name="uniE65B" unicode="&#xe65b;" 
d="M960 117q0 5 -3 12l2 -5q-5 46 -18.5 81.5t-37 64t-49.5 49.5t-66 46v0q0 2 2 4.5t5 5t5.5 4.5t3.5 3l2 2v0q41 33 64 80t23 101q0 98 -69 166.5t-167 68.5q-75 0 -138 -46q-52 24 -108 24q-107 0 -182.5 -75.5t-75.5 -182.5q0 -67 33 -125t89 -93q-87 -37 -144 -114
t-65 -174q-1 0 -1 -6.5t-1 -6.5h1l-1 -1q0 -12 8.5 -20.5t20.5 -8.5l1 1h2h1h1h22h11h571q1 0 6 -0.5t8.5 -0.5t6.5 1h1q14 0 23.5 9.5t9.5 22.5v2v1q-11 104 -64.5 180t-145.5 115q56 35 89 93t33 125q0 57 -23.5 107.5t-65.5 86.5q37 19 77 19q70 0 119 -49t49 -119
q0 -47 -24.5 -87.5t-64.5 -62.5q-14 -6 -23 -19t-9 -29t9 -30.5t23 -20.5q55 -20 95 -64t54 -101h-71q-14 0 -23.5 -10t-9.5 -24t9.5 -23.5t23.5 -9.5h90q1 0 6 -0.5t8.5 -0.5t6.5 1h1q14 0 24 9.5t10 23.5zM685 39h-548q20 97 96.5 160.5t177.5 63.5t177.5 -63.5
t96.5 -160.5zM601 520q0 -78 -55.5 -134t-134.5 -56t-134.5 56t-55.5 134.5t55.5 134.5t134.5 56t134.5 -56t55.5 -135z" />
    <glyph glyph-name="uniE65C" unicode="&#xe65c;" 
d="M512 832q-91 0 -174 -35.5t-143 -95.5t-95.5 -142.5t-35.5 -174t35.5 -174.5t95.5 -143t143 -95t174 -35t174 35t143 95t95 143t35 174.5t-35 174t-95 142.5t-143 95.5t-174 35.5zM706 279q-14 -38 -39 -71q1 -1 4 -2.5t11 -6t13.5 -10.5t9.5 -16t3 -21q0 -2 -0.5 -5
t-5.5 -10.5t-14 -13t-29 -9.5t-48 -4q-8 1 -20 3t-36.5 10.5t-33.5 21.5h-19q-9 -13 -31.5 -21.5t-40.5 -10.5l-18 -3q-27 0 -47.5 4t-29.5 9.5t-14 13t-5.5 10.5t-0.5 5q-2 18 8.5 32t21.5 19l12 5q-7 9 -14 20t-11.5 19.5t-7.5 16t-5 11.5l-2 4q-17 -28 -29 -36.5
t-17 -1.5t-7.5 18.5t-1.5 22.5v11q5 30 20 58t28 40l12 13q-3 27 1.5 45t10.5 23l7 4q1 38 11 69t24 50t33 32.5t35 20t33 9.5t24 3.5t11 0.5t10.5 -0.5t23.5 -3.5t33 -9.5t35 -20t33 -32.5t24.5 -50t11.5 -69q3 -1 7 -4.5t9 -22t2 -45.5q6 -5 14 -14t24.5 -38t21.5 -59
q3 -55 -16 -55q-14 1 -39 41z" />
    <glyph glyph-name="uniE65D" unicode="&#xe65d;" horiz-adv-x="1026" 
d="M411 557l-160 92q-13 7 -30.5 7t-30.5 -7l-160 -92q-12 -8 -21 -23t-9 -30v-184q0 -15 9 -30.5t21 -22.5l160 -92q13 -7 30.5 -7t30.5 7l160 92q12 7 21 22.5t9 30.5v184q0 15 -9 30t-21 23zM273 412q0 -44 -31.5 -75.5t-75.5 -31.5t-75 31.5t-31 75.5v81q0 11 7 18
t17.5 7t18 -7t7.5 -18v-81q0 -23 16.5 -39.5t39.5 -16.5t39.5 16.5t16.5 39.5v81q0 11 7.5 18t18 7t18 -7t7.5 -18v-81zM381 331q0 -11 -7.5 -18.5t-18 -7.5t-17.5 7.5t-7 18.5v162q0 11 7 18t17.5 7t18 -7t7.5 -18v-162zM725 430h-176v-72h39q-2 -15 -17 -24t-51 -18
l12 -27q45 11 65 27t22 42h30v-30q0 -30 30 -30h37q20 0 27.5 6t8.5 23q1 9 1 30l-28 6v67zM579 382v24h116v-24h-116zM724 335q0 -8 -2.5 -10t-11.5 -2h-20q-7 0 -9.5 2.5t-2.5 9.5v23h46v-23zM702 483l-10 5h48v24h-82l-13 24l-29 -11l8 -13h-89v-24h48l-9 -5l11 -16h-63
v-24h232v24h-62q8 12 10 16zM657 467h-36l-15 21h65q-7 -10 -14 -21zM920 363h-32q-2 -18 -20.5 -29t-71.5 -20l11 -26q72 15 94 35q48 -16 96 -35l11 26q-64 21 -92 30q3 8 4 19zM978 389h-1q-7 4 -14 10h52v21h-63v7h40v21h-40v6h35v11h27v46h-91q-1 2 -6.5 11t-6.5 12
l-28 -9l8 -14h-98v-46h27v-11h35v-6h-39v-21h39v-7h-63v-21h51q-23 -19 -62 -33l13 -23q21 9 36 18v-28h26v34h96v-34h27v28q17 -9 37 -17l10 25q-28 8 -47 20zM866 389q6 5 10 10h53q3 -4 10 -10h-73zM925 427v-7h-43v7h43zM882 448v6h43v-6h-43zM925 483v-8h-43v8h-28v-8
h-34v13h167v-13h-35v8h-27z" />
    <glyph glyph-name="uniE65E" unicode="&#xe65e;" 
d="M513.5 272q-92.5 0 -158 65.5t-65.5 158t65.5 158t158 65.5t158 -65.5t65.5 -158t-65.5 -158t-158 -65.5zM513.5 659q-67.5 0 -115.5 -48t-48 -115.5t48 -115t115.5 -47.5t115 47.5t47.5 115t-47.5 115.5t-115 48zM513 112q-104 0 -192.5 51.5t-140 140t-51.5 192.5
t51.5 192.5t140 140t192.5 51.5t192.5 -51.5t140 -140t51.5 -192.5t-51.5 -192.5t-140 -140t-192.5 -51.5zM513.5 819q-87.5 0 -162 -43.5t-118 -118t-43.5 -162t43.5 -162t118 -118t162 -43.5t162 43.5t118 118t43.5 162t-43.5 162t-118 118t-162 43.5zM755 -123
q-16 0 -25 13l-167 243q-7 10 -5 22.5t12.5 19.5t23 4.5t19.5 -12.5l126 -183l16 88q2 12 12.5 19t22.5 5l87 -16l-118 171q-7 10 -5 22.5t12.5 19.5t23 4.5t19.5 -12.5l159 -231q12 -17 1 -34t-31 -13l-129 24l-24 -129q-4 -20 -24 -24q-3 -1 -6 -1zM272 -123q-3 0 -6 1
q-20 4 -24 24l-24 129l-129 -24q-20 -4 -31 13t1 34l158 230q7 10 19.5 12t22.5 -5t12.5 -19t-4.5 -23l-117 -169l87 16q12 2 22.5 -5t12.5 -19l16 -88l126 183q7 10 19.5 12.5t22.5 -4.5t12.5 -19.5t-4.5 -22.5l-167 -243q-9 -13 -25 -13z" />
    <glyph glyph-name="uniE65F" unicode="&#xe65f;" horiz-adv-x="1041" 
d="M868 -52h-713q-65 0 -111 49t-46 117v535q0 69 46 117.5t111 48.5h713q65 0 111 -48.5t46 -117.5v-535q0 -68 -46 -117t-111 -49zM155 748q-37 0 -63.5 -29t-26.5 -70v-535q0 -41 26.5 -69.5t63.5 -28.5h713q37 0 63 28.5t26 69.5v535q0 41 -26 70t-63 29h-713zM977 76
q-14 0 -24 10l-280 300q-26 28 -62.5 28t-62.5 -28l-107 -114q-9 -10 -23 -10.5t-24 9t-10.5 23.5t8.5 24l107 114q46 50 111.5 50t111.5 -50l280 -300q9 -10 8.5 -24t-10.5 -23t-23 -9zM32 85q-13 0 -23 9t-10.5 23t9.5 24l122 131q46 50 111.5 50t112.5 -50l115 -123
q10 -11 9.5 -24.5t-11 -23.5t-24.5 -9.5t-23 11.5l-116 123q-26 28 -62.5 28t-62.5 -28l-122 -131q-10 -10 -25 -10zM254.5 398q-50.5 0 -86.5 37.5t-36 91t36 91.5t86.5 38t86.5 -38t36 -91.5t-36 -91t-86.5 -37.5zM255 589q-23 0 -39.5 -18.5t-16.5 -44t16.5 -43.5
t39.5 -18t39 18t16 43.5t-16 44t-39 18.5z" />
    <glyph glyph-name="uniE660" unicode="&#xe660;" 
d="M13.5 870q-4.5 0 -4.5 5t4.5 5t4.5 -5t-4.5 -5zM13.5 875q-0.5 0 -0.5 -0.5t1 -0.5q0 1 -0.5 1zM511 -126q-113 0 -209 54.5t-152 148.5t-56 205q0 76 35 151t100 108l37 18l4 -41q6 -58 30 -115h2q2 25 0 55t4 67t13.5 74t27 76t46 73t70 64.5t98.5 50.5l38 14v-61
q0 -80 1.5 -119.5t10.5 -92.5t27 -91q1 0 2 1q33 111 160 147l36 10v-38q0 -40 8 -78t16.5 -58.5t24.5 -56.5q14 -31 21.5 -49t15 -49t7.5 -60q0 -111 -56 -205t-152.5 -148.5t-209.5 -54.5zM221 466q-33 -32 -51.5 -83t-18.5 -101q0 -95 48 -176t131 -128t181 -47t181 47
t131.5 128t48.5 176q0 24 -6 49t-12.5 40.5t-20.5 45.5q-15 32 -23 51.5t-17.5 54.5t-11.5 70q-68 -30 -87 -95q-5 -19 -20.5 -30.5t-35.5 -11.5q-36 0 -52 33q-28 59 -35.5 127t-7.5 177q-49 -23 -83.5 -57.5t-54 -71t-30.5 -83t-14 -86.5t-2 -90q1 -25 -16 -42t-42 -17
q-38 0 -53 34q-17 39 -27 86z" />
    <glyph glyph-name="uniE661" unicode="&#xe661;" 
d="M939 832h-596q-8 0 -20 -1h-1t-2 -1h-2h-5q-4 -1 -9 -2h-4q-4 -1 -10 -2h-1q-1 -1 -2 -1q-5 -1 -11 -3h-2q-19 -6 -38 -14l-1 -1l-10 -5q-1 0 -2 -0.5t-1 -1.5q-5 -2 -9 -4q-1 -1 -3 -2q-4 -3 -8 -5q-2 -1 -3 -2l-8 -6q-2 -1 -3 -2l-8 -6l-3 -2l-8 -6q0 -1 -1 -1l-1 -1
q-4 -4 -9 -8v-1h-1q-14 -14 -27 -30l-1 -1q-4 -4 -7 -9v-2h-1q-4 -5 -7 -9q0 -1 -1 -2v-1q-3 -4 -6 -9q-1 -1 -1 -2q-3 -5 -6 -9q-1 -2 -1 -3q-3 -4 -5 -9q0 -1 -0.5 -1.5t-0.5 -1.5q-3 -5 -5 -10v-1l-1 -1q-10 -25 -16 -52q-2 -6 -3 -13v-2q-1 -6 -2 -11v-2v-1l-1 -6v-2
q-1 -10 -1 -18v-609h448v112h-316q-8 0 -14 6t-6 14v457v20q0 17 4 33v1l2 8q1 4 2 7v1q2 4 3 7v1q1 4 3 7v1q2 3 3 7q1 0 1 1q1 3 3 6v1q2 3 4 7v0q2 3 4 7h1q2 4 4 7q17 24 40 41h1q3 3 6 5h1l6 4l1 1q3 1 6 3l1 1q3 1 6 3h1q3 2 6 3q1 0 2 1l6 2h2q2 1 6 2l1 1q3 1 7 1
l1 1q3 0 7 1h1q4 1 7 1l1 1h1h7h1q4 1 8 1h484q8 0 14 -6t6 -15v-261h112v393h-20zM478 453l-17 31q-15 26 -35.5 26t-34.5 -26l-175 -311q-6 -10 -0.5 -20.5t16.5 -10.5h124l186 200q5 5 2 11zM752 517.5q26 12.5 35 39t-3.5 52t-39.5 35t-52.5 -3t-35 -39.5t3 -52
t39.5 -34.5t53 3zM485 142h140v-205h104q37 0 63 26t26 63v45v71h140l-236 298z" />
    <glyph glyph-name="uniE662" unicode="&#xe662;" 
d="M496.5 -124q-40.5 0 -69.5 17l-319 186q-29 17 -49 52t-20 69v372q0 34 20 69t49 52l319 186q29 17 69.5 17t69.5 -17l320 -186q29 -17 49 -52t20 -69v-372q0 -34 -20 -69t-49 -52l-320 -186q-29 -17 -69.5 -17zM497 861q-31 0 -52 -12l-320 -186q-21 -12 -36.5 -39
t-15.5 -52v-372q0 -25 15.5 -51.5t36.5 -39.5l320 -186q21 -12 52 -12t52 12l319 186q21 13 36.5 39.5t15.5 51.5v372q0 25 -15.5 52t-36.5 39l-319 186q-21 12 -52 12z" />
    <glyph glyph-name="uniE663" unicode="&#xe663;" 
d="M851 78l-398 126l398 474l-520 -474l-307 127l980 537zM453 -112v222l122 -64z" />
    <glyph glyph-name="uniE664" unicode="&#xe664;" 
d="M915 485h-257q20 75 27 137t3 101t-16 68.5t-24.5 44t-28 23.5t-21.5 10.5t-9 2.5q-25 0 -39 -9.5t-17 -20t-4 -22.5t-2 -14q0 -50 -19.5 -102t-47.5 -89.5t-56.5 -68t-47.5 -45.5l-20 -16v-510q0 -23 19 -39.5t39.5 -22.5t37.5 -6h386q32 0 63 88l3 7q42 144 66 252
t26.5 133.5t2.5 35.5q0 19 -6.5 32.5t-16 19t-19 8.5t-16.5 2h-6v0zM231 485h-154q-9 0 -15.5 -3t-9.5 -8t-5 -9.5t-2 -7.5v-3l31 -514q0 -15 8.5 -23t16.5 -9l8 -1h133q13 0 19.5 5.5t7.5 10.5l1 6v517q0 18 -10 27.5t-20 10.5l-9 1v0z" />
    <glyph glyph-name="uniE665" unicode="&#xe665;" 
d="M144 579q-27 0 -46 19t-19 46.5t19 46.5t46 19t46.5 -19t19.5 -46.5t-19.5 -46.5t-46.5 -19zM144.5 654q-9.5 0 -9.5 -9.5t9.5 -9.5t9.5 9.5t-9.5 9.5zM885.5 581q-26.5 0 -45 18.5t-18.5 45t18.5 45t45 18.5t45.5 -18.5t19 -45t-19 -45t-45.5 -18.5zM886 653q-8 0 -8 -8
q0 -4 2 -6.5t6 -2.5q8 0 8 9q0 3 -2.5 5.5t-5.5 2.5zM517 735q-33 0 -57 23.5t-24 57t24 57t57 23.5t56.5 -23.5t23.5 -57t-23.5 -57t-56.5 -23.5zM517 840q-10 0 -17.5 -7t-7.5 -17.5t7.5 -17.5t17.5 -7t17 7t7 17.5t-7 17.5t-17 7zM777 43h-531q-27 0 -47.5 17t-25.5 44
l-69 363q-6 34 16 61t58 27q26 0 47 -17l97 -80q3 -3 8 -3q8 0 12 6l110 199q21 38 65 38t65 -38l110 -199q4 -6 12 -6q4 0 8 3l97 80q21 17 47 17q35 0 58 -27q22 -27 15 -61l-66 -353q-6 -31 -30 -51t-56 -20zM177 499q-8 0 -14 -7q-6 -6 -4 -15l69 -363q3 -15 18 -15h531
q12 0 20.5 7t10.5 18l66 353q2 9 -3 15t-12.5 7t-13.5 -4l-97 -80q-20 -16 -44 -16q-41 0 -61 35l-110 199q-5 9 -16 9t-16 -9l-111 -199q-19 -35 -60 -35q-25 0 -44 16l-97 80q-5 4 -12 4zM818 -79h-603q-12 0 -20 8t-8 19.5t8 19.5t20 8h603q11 0 19 -8t8 -19.5t-8 -19.5
t-19 -8z" />
    <glyph glyph-name="uniE666" unicode="&#xe666;" 
d="M519 -60q-22 0 -37 15l-385 386q-84 83 -84 201t83.5 201.5t201.5 83.5t201 -83l20 -20l19 20q83 83 201.5 83t201.5 -83q83 -84 83 -202t-83 -201l-386 -386q-14 -14 -34 -15h-2zM298 766q-93 0 -158.5 -65.5t-65.5 -158.5t65 -158l380 -380l379 380q65 65 65 158
t-65 158.5t-158.5 65.5t-158.5 -65l-23 -23q-16 -16 -39.5 -16t-38.5 16l-24 23q-65 65 -158 65zM417.5 200q-12.5 0 -21.5 9l-192 193q-54 53 -54 128.5t54 129.5q48 48 117 52q12 1 21.5 -7.5t10.5 -21t-7.5 -21.5t-20.5 -10q-47 -3 -79 -35q-35 -36 -35 -86.5t35 -86.5
l193 -192q9 -9 9 -21.5t-9 -21.5t-21.5 -9z" />
    <glyph glyph-name="uniE667" unicode="&#xe667;" 
d="M14.5 868q-4.5 0 -4.5 5t4.5 5t4.5 -5t-4.5 -5zM14.5 873q-0.5 0 -0.5 -1q1 0 1 0.5t-0.5 0.5zM511.5 183q-82.5 0 -141 58.5t-58.5 141.5t58.5 141.5t141 58.5t141 -58.5t58.5 -141.5t-58.5 -141.5t-141 -58.5zM511.5 524q-58.5 0 -99.5 -41.5t-41 -99.5t41 -99.5
t99.5 -41.5t99.5 41.5t41 99.5t-41 99.5t-99.5 41.5zM540 293h-18q-37 0 -63.5 26.5t-26.5 63.5t26.5 63.5t63.5 26.5h18q13 0 21.5 -9t8.5 -21t-8.5 -20.5t-21.5 -8.5h-18q-13 0 -22 -9t-9 -22t9 -21.5t22 -8.5h18q13 0 21.5 -9t8.5 -21t-8.5 -21t-21.5 -9zM511.5 -119
q-6.5 0 -12.5 3l-201 92q-103 47 -163 130t-60 180v435q0 14 11 23t24 6q40 -8 80 -8q67 0 129 20.5t109 58.5l65 52q18 15 37 0l65 -52q46 -38 108.5 -58.5t128.5 -20.5q41 0 80 8q14 3 24.5 -6t10.5 -23v-435q0 -97 -59.5 -180t-162.5 -130l-201 -92q-6 -3 -12.5 -3z
M134 686v-400q0 -79 50.5 -148t137.5 -109l189 -86l189 86q87 40 137.5 109t50.5 148v400q-28 -3 -56 -3q-160 0 -274 92l-47 37l-46 -37q-114 -92 -275 -92q-28 0 -56 3z" />
    <glyph glyph-name="uniE668" unicode="&#xe668;" 
d="M95 550l-79 -139q-6 -11 -6 -26.5t6 -26.5l79 -139q6 -11 19 -19t25 -8h742q12 0 25 8t19 19l79 139q6 11 6 26.5t-6 26.5l-79 139q-6 11 -19 18.5t-25 7.5h-742q-12 0 -25 -7.5t-19 -18.5z" />
    <glyph glyph-name="uniE669" unicode="&#xe669;" 
d="M299 888h426q8 0 8 -8v-931q0 -7 -8 -7l-214 -62l-212 62q-8 0 -8 7v931q0 8 8 8z" />
    <glyph glyph-name="uniE66A" unicode="&#xe66a;" 
d="M37 443l-29 -50q-5 -9 0 -18l29 -50q5 -9 15 -9h920q10 0 15 9l29 50q5 9 0 18l-29 50q-5 9 -15 9h-920q-10 0 -15 -9z" />
    <glyph glyph-name="uniE66B" unicode="&#xe66b;" 
d="M180 461l-9 4q-12 -19 -22 -31h-48q-8 12 -23 32l-9 -4l20 -28h-80v-9h232v9h-80q10 13 19 27zM220 307q-1 -11 -5 -14t-16 -3h-26q-18 0 -18 18v33h47v55h-156v-55h40q0 -23 -16 -35.5t-59 -23.5l4 -9q45 12 63 26.5t18 41.5h49v-35q0 -24 24 -24h32q16 0 21.5 4.5
t6.5 18.5q0 7 1 29l-9 2q-1 -22 -1 -29zM56 349v39h136v-39h-136zM227 478h-90l-15 29l-9 -4q7 -13 13 -25h-104v-8h205v8zM391 338h-11q-3 -22 -22.5 -34.5t-76.5 -22.5l3 -9q80 15 97 40l-2 -5q57 -18 102 -35l4 9q-50 18 -102 33q6 10 8 24zM496 380v8h-72v20h48v7h-48
v20h44v7h-44v16h-9v-16h-61v16h-10v-16h-44v-7h44v-20h-48v-7h48v-20h-72v-8h70q-24 -27 -76 -47l4 -7q27 10 48 24v-42h9v41h113v-41h10v43q22 -15 49 -24l3 9q-52 16 -76 44h70zM354 435h61v-20h-61v20zM354 408h61v-20h-61v20zM442 356h-116q16 11 27 24h62
q12 -14 27 -24zM292 470h185v-30h9v37h-89l-16 28l-9 -3q1 -2 4 -7.5t5.5 -10t4.5 -7.5h-104v-37h10v30zM600 408q-4 -4 -14 -5l3 -8q33 2 135 6l15 -16l7 7q-24 25 -51 52l-7 -6l28 -29l-104 -3q24 23 49 53h91v9h-160v-9h57q-26 -32 -49 -51zM677 478q-11 17 -20 29l-9 -5
q10 -13 19 -29zM587 457q-19 15 -48 35l-5 -8q23 -16 47 -35zM657 275h9v105h-9v-105zM577 397q-29 23 -49 37l-5 -8q16 -12 48 -37zM747 300q-1 -8 -3.5 -10.5t-11.5 -2.5h-6q-13 0 -13 12v81h-10v-83q0 -11 4.5 -14.5t16.5 -3.5h9q12 0 16.5 3.5t5.5 14.5q1 8 1 35l-8 1
q0 -23 -1 -33zM562 368q-2 -8 -14 -45.5t-15 -46.5l10 -2q10 29 29 92zM610 356q0 -30 -8 -45.5t-32 -35.5l6 -6q26 21 34.5 38t8.5 47v26h-9v-24zM997 485h-107v-62h107v62zM987 432h-88v44h88v-44zM948 296v38h58v9h-58v39h65v9h-137v-9h63v-39h-58v-9h58v-38h-77v-10h159
v10h-73zM876 351q-14 17 -31 37l-7 -5q17 -21 31 -38zM874 426h-38v47q24 5 38 9l-2 9q-35 -10 -84 -16l1 -10q21 3 38 7v-46h-41v-9h40q-14 -50 -41 -89l5 -8q23 33 37 76v-126h9v147h38v9z" />
    <glyph glyph-name="uniE66C" unicode="&#xe66c;" 
d="M88 489l-34 43l-9 -5q3 -4 16.5 -21t17.5 -22zM120 401h108v9h-109q0 2 0.5 4t0.5 3v50h95v9h-71q25 30 41 53l-10 5q-19 -29 -44 -58h-118v-9h96v-51q0 -4 -1 -6h-107v-9h106q-10 -55 -107 -91l5 -10q90 34 109 87q24 -62 111 -86l5 10q-91 24 -110 90zM388 500h89v10
h-198v-10h98v-71h-117v-10h117v-79q0 -13 -5.5 -17.5t-20.5 -4.5h-36l2 -10h36q20 0 27.5 6t7.5 23v82h108v10h-108v71zM744 507h-90l-15 29l-10 -4q8 -15 13 -25h-105v-8h207v8zM697 490l-9 4q-13 -20 -22 -32h-49q-8 12 -24 33l-8 -5q4 -5 20 -28h-82v-8h235v8h-80
q10 15 19 28zM737 334q0 -11 -4 -14.5t-17 -3.5h-26q-19 0 -19 18v34h48v56h-158v-56h40q0 -24 -16 -36.5t-59 -22.5l4 -10q46 12 64 27t18 42h49v-36q0 -24 25 -24h32q16 0 22 4.5t7 18.5q0 3 1 30l-10 2q-1 -25 -1 -29zM571 376v40h138v-40h-138zM810 498h187v-30h10v38
h-90l-16 28l-10 -3l15 -25h-105v-38h9v30zM946 408h71v7h-73v21h49v7h-49v21h45v7h-45v15h-9v-15h-62v15h-10v-15h-45v-7h45v-21h-48v-7h48v-21h-73v-7h71q-24 -27 -77 -48l4 -8q27 11 49 26v-43h9v41h115v-41h9v43q23 -14 50 -24l4 9q-53 16 -78 45zM873 464h62v-21h-62v21
zM873 436h62v-21h-62v21zM845 383q16 12 27 25h63q12 -14 27 -25h-117zM910 365h-10q-3 -22 -23 -35t-78 -23l4 -9q80 16 98 41l-2 -5q56 -18 103 -36l4 9q-51 18 -104 34q6 9 8 24z" />
    <glyph glyph-name="uniE66D" unicode="&#xe66d;" 
d="M275 442l-7 3q-8 -14 -15 -23h-34q-6 9 -17 24l-6 -4q4 -4 14 -20h-57v-6h165v6h-57zM303 332q0 -8 -3 -10t-12 -2h-18q-13 0 -13 12v24h33v39h-110v-39h28q0 -16 -11.5 -25t-42.5 -16l3 -7q33 8 45.5 18.5t12.5 29.5h35v-25q0 -17 17 -17h23q11 0 15 3.5t5 12.5
q0 6 1 21l-7 2q0 -16 -1 -21zM187 362v28h96v-28h-96zM308 454h-63l-11 20l-7 -2l9 -18h-73v-6h145v6v0zM425 354h-7q-2 -15 -16.5 -24t-54.5 -17l2 -6q57 11 70 29l-2 -4q41 -13 73 -25l2 6q-35 13 -73 24q5 7 6 17zM500 384v5h-51v15h34v5h-34v14h31v6h-31v10h-7v-10h-43
v10h-7v-10h-32v-6h32v-14h-34v-5h34v-15h-52v-5h50q-17 -19 -54 -33l3 -6q19 8 35 18v-30h6v29h81v-29h6v30q16 -10 36 -17l2 6q-37 12 -55 32h50zM399 423h43v-14h-43v14zM399 404h43v-15h-43v15zM461 367h-82q11 8 19 17h45q8 -10 18 -17zM355 448h131v-21h7v26h-63
l-12 20l-6 -2q1 -2 3 -5.5t3.5 -7t3.5 -5.5h-74v-26h7v21zM575 404q-4 -3 -10 -4l1 -5q24 1 97 4l10 -11l5 4q-17 18 -36 38l-5 -4l20 -21l-74 -2q17 16 35 37h65v7h-114v-7h40q-19 -22 -34 -36zM629 453q-8 13 -14 21l-7 -3q7 -10 14 -21zM565 439q-14 10 -34 25l-4 -6
q17 -11 34 -25zM615 309h6v75h-6v-75zM558 396q-21 16 -35 26l-4 -5q12 -9 35 -27zM679 327q0 -5 -2 -7t-9 -2h-4q-10 0 -10 8v58h-6v-59q0 -13 14 -13h7q9 0 12 2.5t4 10.5q0 6 1 25h-6q0 -16 -1 -23zM547 376q-7 -31 -21 -66l7 -2q8 22 21 66zM581 367q0 -22 -5.5 -33
t-22.5 -24l4 -5q19 15 25 27t6 34v18h-7v-17zM857 459h-76v-44h76v44zM850 421h-63v31h63v-31zM822 324v27h42v7h-42v27h46v7h-97v-7h45v-27h-42v-7h42v-27h-55v-7h113v7h-52v0zM771 363q-10 13 -22 27l-5 -4q12 -14 22 -27zM769 417h-27v34q17 3 28 6l-2 6q-25 -7 -60 -12
l1 -6q15 2 27 4v-32h-29v-7h29q-10 -35 -30 -63l4 -6q16 23 26 54v-90h6v105h27v7v0z" />
    <glyph glyph-name="uniE66E" unicode="&#xe66e;" 
d="M212 440l-24 30l-6 -4q2 -2 11.5 -14.5t12.5 -15.5zM235 377h76v7h-77v2v2v36h68v7h-50q17 21 29 37l-7 3q-14 -20 -32 -40h-83v-7h68v-36v-4h-76v-7h75q-8 -39 -76 -64l4 -7q63 24 77 61q17 -43 78 -60l3 7q-64 17 -77 63zM424 448h63v7h-139v-7h68v-51h-82v-7h82v-56
q0 -9 -3.5 -12.5t-14.5 -3.5h-25l1 -7h26q14 0 19 4.5t5 16.5v58h77v7h-77v51zM676 452h-64l-11 21l-7 -3q6 -11 10 -18h-74v-6h146v6zM642 440l-6 3q-9 -14 -15 -23h-35q-5 9 -17 24l-6 -4q3 -3 15 -20h-58v-6h166v6h-57q8 11 13 20zM671 330q0 -8 -3 -10.5t-12 -2.5h-18
q-13 0 -13 13v24h33v39h-111v-39h28q0 -17 -11.5 -25.5t-42.5 -16.5l3 -7q33 9 46 19.5t13 29.5h35v-25q0 -17 17 -17h22q12 0 16 3t5 13q0 2 1 21l-7 2q-1 -18 -1 -21zM554 360v28h97v-28h-97zM723 446h132v-21h6v27h-63l-11 19l-7 -2l10 -17h-74v-27h7v21v0zM819 382h50v5
h-52v15h35v5h-35v14h32v6h-32v10h-6v-10h-44v10h-7v-10h-32v-6h32v-14h-34v-5h34v-15h-52v-5h51q-17 -19 -55 -33l3 -6q19 8 35 18v-31h6v30h81v-29h7v30q16 -10 35 -17l3 6q-38 12 -55 32zM767 421h44v-14h-44v14zM767 402h44v-15h-44v15zM747 365q11 8 19 17h45
q8 -10 19 -17h-83zM793 352h-7q-2 -16 -16 -25t-55 -16l2 -6q57 11 70 28l-2 -3q40 -13 73 -25l3 6q-36 13 -73 24q4 7 5 17z" />
    <glyph glyph-name="uniE66F" unicode="&#xe66f;" 
d="M520 308q-73 0 -137 18t-108.5 44t-83 62.5t-60 66.5t-39 63.5t-22 45t-6.5 18.5l61 19q3 -8 7 -19t19 -39.5t34 -54t52 -56t71 -52.5t93.5 -37t118.5 -15t117.5 15.5t91.5 37.5t68.5 53t48.5 57t30.5 54t17 38t4.5 16l62 -15q-1 -7 -5 -19.5t-20 -45t-36 -63t-56.5 -67
t-79.5 -63t-106.5 -44.5t-136.5 -18zM195 470l-148 -161l-36 33l148 161zM355 341l-114 -175l-41 26l114 176zM485 313h49v-207h-49v207zM1013 318l-36 -33l-148 160l36 34zM824 192l-41 -26l-114 175l41 27z" />
    <glyph glyph-name="uniE670" unicode="&#xe670;" 
d="M369 384v0l-166 346l-10 -5l163 -341l-163 -341l10 -5z" />
    <glyph glyph-name="uniE671" unicode="&#xe671;" 
d="M772 665h-36v43v30v30q0 27 -19 45.5t-45 18.5h-320q-26 0 -45 -18.5t-19 -45.5v-30v-30v-43h-37h-187v-188v-288v-65q0 -77 55 -132t132 -55h521q77 0 132 55t55 132v65v288v188h-187zM400 720h224v-55h-224v55zM176 552h140h391h141v-130v-37h-672v37v130zM848 179
q0 -53 -41.5 -91t-99.5 -38h-391q-58 0 -99 38t-41 91v45v104h223v-112h225v112h224v-104v-45z" />
    <glyph glyph-name="uniE672" unicode="&#xe672;" 
d="M512 724q-66 -1 -141.5 -32t-138.5 -76.5t-116 -94.5t-83.5 -89t-30.5 -58q0 -17 28 -57.5t79 -90.5t113 -95.5t140 -76t150 -29.5t150 33.5t139.5 79.5t113 96.5t79.5 88t28 52t-30.5 52.5t-83.5 89.5t-116 97.5t-139 78.5t-141 31.5zM511.5 141q-96.5 0 -164.5 68.5
t-68 165t68 164.5t164.5 68t165 -68t68.5 -164.5t-68.5 -165t-165 -68.5zM417 374q0 -39 27.5 -67t67 -28t67 28t27.5 67v0q0 39 -27.5 66.5t-67 27.5t-67 -27.5t-27.5 -66.5z" />
    <glyph glyph-name="uniE673" unicode="&#xe673;" 
d="M1009 445l-35 60l1 70q0 30 -18.5 62.5t-44.5 47.5l-60 35l-34 61q-15 26 -47.5 45t-62.5 19h-69l-60 35q-26 16 -63.5 16t-63.5 -15l-61 -34h-69q-31 1 -63 -17.5t-48 -44.5l-35 -60l-60 -35q-27 -15 -45.5 -47t-18.5 -62l-1 -70l-35 -60q-15 -26 -15.5 -63t14.5 -63
l34 -61v-70q0 -30 18.5 -62t44.5 -48l60 -35l34 -60q15 -27 47 -45.5t62 -19.5h70l60 -35q26 -16 63.5 -16t63.5 15l60 34h70q30 0 62.5 18t47.5 44l35 60l61 35q26 15 45 47t19 62v70l36 60q15 26 15 63t-14 64zM989 320l-34 -58v-67q0 -29 -18 -60t-44 -45l-58 -33
l-34 -58q-15 -25 -46 -42.5t-60 -17.5h-67l-58 -33q-26 -14 -61.5 -14t-61.5 15l-57 34h-67q-29 1 -60 19t-46 43l-33 58l-58 34q-25 15 -42.5 46t-17.5 61v67l-33 58q-14 25 -13.5 61t14.5 61l34 58l1 67q0 29 18 60t43 45l59 33l34 58q14 25 45.5 43t60.5 17h67l58 33
q25 14 61 14t61 -15l58 -34h67q29 0 60 -18.5t45 -43.5l33 -58l58 -34q25 -15 43 -46t18 -60l-1 -67l33 -59q15 -25 14.5 -61t-15.5 -61zM269 528q-39 -66 -40 -142q0 -30 6 -59h7q-6 29 -6 59q1 76 41 142h-8zM787 382q0 -29 -6 -59h7q6 30 6 59q1 76 -37 142h-8
q39 -65 38 -142zM703 463q0 13 -7.5 26.5t-18.5 19.5l-138 81q-10 6 -25.5 6t-26.5 -6l-139 -79q-11 -6 -18.5 -19.5t-8.5 -25.5l-1 -160q0 -13 7.5 -26t18.5 -20l138 -81q11 -6 26.5 -6t26.5 6l139 79q10 6 18 19.5t8 25.5zM557 384q0 -38 -27.5 -65t-65.5 -26.5t-65 27.5
t-26 66v70q0 9 6.5 15.5t15.5 6.5t15.5 -6.5t6.5 -15.5l-1 -71q0 -20 14 -34.5t34.5 -14.5t34.5 14t14 35l1 70q0 9 6.5 15.5t15.5 6.5t15.5 -6.5t6.5 -15.5zM651 313q-1 -9 -7 -15.5t-15.5 -6t-15.5 6.5t-6 16l1 140q0 9 6.5 15.5t15.5 6.5t15.5 -6.5t6.5 -15.5zM445 130
h-1l-1 1h-2h-1h-1q-3 -12 -7 -24q-4 -2 -7 -3t-6 0q-2 1 -3.5 2t-2 2.5t-0.5 3.5t1 5q3 10 7 19v1h-1l-1 1l-1 1h-2h-1h-1q-4 -11 -8 -20q-1 -4 -1.5 -6.5t1 -5t3.5 -4.5t7 -4q3 -1 7 -0.5t8 2.5q0 -1 -1 -3v-1v-1l1 -1h1l1 -1h2h1h1v1q4 16 9 34zM473 124l-1 1h-1h-2h-1h-1
v-1q-3 -18 -6 -34v-1h1l1 -1h2h2h1h1q2 18 5 35v1h-1zM472.5 139.5q-2.5 0.5 -3.5 -0.5t-1 -3t0.5 -3t3 -1.5t3.5 0.5t1.5 3t-0.5 3t-3.5 1.5zM499 93.5q-3 0.5 -4 -0.5t-1.5 -3.5t1 -3.5t4 -1.5t4 0.5t1.5 4t-1 3.5t-4 1zM558 96l-1 1h-1l-1 -1q-1 0 -2.5 -1t-3.5 -2l-4 -2
q-3 0 -5.5 0.5t-4 2t-2.5 4t-1 6.5q-1 6 1.5 10t7.5 5q3 0 5 -0.5t3 -1.5q2 0 2 -1h2l1 1v2v1l-1 1l-1 1l-2 1q-1 0 -2.5 0.5t-3.5 0.5h-3q-4 0 -7 -1.5t-5.5 -4t-3.5 -6.5t-1 -9t1.5 -8t4 -5.5t6.5 -3.5t8 0q3 0 5 0.5t3.5 1.5t2.5 2l2 1l1 1v1v2v1zM607 124q-1 3 -2.5 5.5
t-4 3.5t-5 1.5t-6.5 -0.5q-3 -1 -6 -3.5t-5 -6.5q0 3 -1 5l-1 1h-1l-1 -1h-2l-1 -1v-1l8 -34h1h1h2l2 1h1v1l-6 24q2 4 4.5 6t4.5 3t4 0.5t3 -1t2 -2.5l2 -4q4 -10 7 -20h1h1h2l2 1l1 1h1v1zM633 812q-58 16 -118 17q-152 1 -271 -90t-159 -233q-17 -58 -17 -118
q-1 -152 90 -271t233 -160q57 -16 118 -16q151 -1 270.5 89.5t159.5 233.5q16 57 17 118q1 151 -90 270.5t-233 159.5zM925 268q-39 -138 -154.5 -226t-261.5 -87q-59 1 -114 17q-138 38 -225.5 153.5t-86.5 262.5q0 58 16 114q39 137 154 225t262 87q58 -1 114 -16
q137 -39 225 -154.5t87 -261.5q0 -59 -16 -114zM782 610l-16 18l38 38l-7 7l-38 -38q-9 9 -19 17l33 40l-7 6l-33 -40q-9 8 -19 15l30 44l-8 5l-30 -44q-11 7 -22 13l25 46l-8 4l-25 -45q-11 6 -22 11l20 49l-8 4l-21 -49l-24 8l16 49l-9 3l-16 -49q-3 1 -4 1q-10 3 -21 5
l11 53l-9 2l-11 -53q-12 3 -25 4l6 51l-10 1l-5 -51q-12 1 -25 1v54h-9l-1 -53q-12 -1 -25 -1l-5 51l-9 -1l5 -51l-24 -4l-10 53l-9 -2l9 -52l-24 -6l-15 49l-9 -3l15 -49l-24 -8l-20 49l-9 -3l20 -50l-22 -10l-24 45l-9 -4l24 -46q-11 -6 -22 -13l-29 45l-8 -5l29 -45
q-10 -7 -20 -15l-32 40l-8 -6l33 -40q-10 -8 -19 -17l-38 39l-6 -7l37 -38q-9 -9 -17 -19l-39 33l-6 -7l39 -33q-7 -9 -14 -19l-45 30l-5 -8l44 -30q-7 -11 -13 -22l-45 25l-5 -8l45 -25q-5 -11 -10 -23l-50 21l-3 -8l49 -21q-5 -12 -9 -24l-49 15l-3 -9l49 -15q-1 -3 -1 -4
q-3 -10 -5 -21l-52 11l-2 -9l52 -11q-2 -12 -4 -25l-51 5l-1 -9l51 -5q-1 -13 -1 -25h-54v-9l54 -1q0 -13 1 -25l-51 -5v-9l52 5q1 -12 3 -24l-52 -10l1 -10l53 10q2 -12 6 -24l-50 -15l3 -9l49 15q4 -12 9 -24l-50 -20l4 -9l49 20q5 -12 11 -23l-46 -24l5 -8l45 24
q6 -11 13 -22l-44 -29l5 -8l44 29q8 -10 15 -20l-40 -33l6 -7l40 32q8 -9 17 -18l-38 -38l7 -6l38 37q8 -9 18 -17l-33 -40l7 -6l33 40q10 -8 20 -15l-30 -44l8 -5l30 44q10 -7 21 -13l-24 -45l8 -5l24 45q12 -6 23 -11l-21 -49l9 -3l21 49q12 -5 23 -9l-15 -49l9 -3l15 49
q4 -1 5 -1q10 -3 20 -5l-11 -53l10 -1l10 52q13 -2 25 -4l-5 -51l9 -1l6 51q12 -1 25 -1l-1 -54h10v54q13 0 25 1l5 -52l9 1l-4 52q12 1 24 3l10 -53l9 2l-10 53q12 2 25 6l14 -50l9 3l-14 49q12 4 23 8l20 -49l9 4l-20 49q12 5 23 11l24 -46l8 4l-24 46q12 6 22 13l30 -45
l8 6l-30 44q11 7 21 15l32 -40l7 6l-32 40q10 8 19 17l37 -38l7 6l-38 38q9 9 17 19l40 -33l6 7l-40 33q8 9 15 20l44 -30l6 7l-45 30l14 22l45 -25l4 9l-45 24q6 11 11 23l49 -21l4 9l-49 20q5 12 8 24l50 -15l2 9l-49 15q1 4 2 5q2 10 5 20l52 -11l2 9l-53 11q3 12 4 25
l52 -5l1 9l-52 5q1 13 2 25h53v10h-53q0 13 -1 25l51 5l-1 9l-51 -4q-1 12 -4 24l53 10l-2 9l-52 -10l-6 24l49 15l-2 9l-50 -15q-4 13 -8 24l49 20l-3 9l-50 -20q-5 12 -10 23l45 24l-4 8l-46 -24q-6 12 -13 22l45 30l-5 7l-45 -29q-7 11 -15 20l40 33l-6 7zM849 382
q0 -46 -13 -89q-30 -108 -120.5 -177t-205.5 -69q-46 1 -90 13q-108 31 -177 121.5t-68 205.5q0 46 12 90q31 108 121.5 177t205.5 68q46 0 90 -13q108 -30 177 -121t68 -206zM367 156q-10 0 -10 -10.5t10 -10.5t10 10.5t-10 10.5zM653 154q-10 0 -10 -10.5t10 -10.5t10 10
q0 5 -3 8t-7 3zM322.5 187q-10.5 0 -10.5 -10t10.5 -10t10.5 10t-10.5 10zM698 185q-10 0 -10.5 -10.5t10 -10.5t10.5 10.5t-10 10.5zM287 226q-5 0 -8 -3t-3 -7q0 -11 10.5 -11t10.5 10.5t-10 10.5zM735 223q-10 0 -10 -10.5t10 -10.5t10 10.5t-10 10.5zM761 265
q-10 0 -10 -10t10 -10.5t10 10t-10 10.5zM261 268.5q-10 0.5 -10.5 -10t10 -10.5t10.5 10t-10 10.5zM493 651l17 -10q4 -2 7 0l17 10q3 2 3 6v19q0 4 -3 6l-17 10q-3 2 -6 0l-17 -10q-4 -2 -4 -5v-20q0 -4 3 -6zM393 633l10 -6q2 -1 4 0l10 6q2 1 2 3v12q0 2 -2 3l-10 6
q-2 1 -4 0l-10 -6q-2 -1 -2 -3v-12q0 -2 2 -3zM610 632l10 -6q2 -1 4 0l10 5q2 2 2 4v11q0 3 -2 4l-10 6q-2 1 -3 0l-11 -6q-1 -1 -1 -3l-1 -12q0 -2 2 -3zM679 598h2l6 3l1 2v7l-1 2l-5 3h-3l-5 -3l-1 -2v-7l1 -2zM353 600h2l6 4l1 1v7l-1 2l-5 3h-3l-5 -3l-1 -2v-7l1 -1z
" />
    <glyph glyph-name="uniE674" unicode="&#xe674;" 
d="M745 422h-176q-8 1 -13.5 6t-5.5 13v1v1v120q0 16 -11 27t-27 11q-15 0 -26 -11t-12 -26v-197q1 -8 6.5 -13.5t13.5 -6.5h253q14 2 23.5 12.5t9.5 24.5q0 15 -10 26t-25 12zM512 831q-91 0 -173.5 -35.5t-142.5 -95t-95.5 -142.5t-35.5 -174t35.5 -174t95.5 -143
t142.5 -95t173.5 -35t174 35t143 95t95.5 143t35.5 174t-35.5 174t-95.5 142.5t-143 95t-174 35.5zM512 53q-90 0 -166 44t-120.5 120.5t-44.5 166.5t44.5 166.5t120.5 120.5t166 44t166.5 -44t121 -120.5t44.5 -166.5t-44.5 -166.5t-121 -120.5t-166.5 -44z" />
  </font>
</defs>
</svg>
