<?xml version="1.0" encoding="utf-8"?>
<!DOCTYPE svg PUBLIC "-//W3C//DTD SVG 1.1//EN" "http://www.w3.org/Graphics/SVG/1.1/DTD/svg11.dtd">
<svg style="width:308px;height:308px;" version="1.1" id="图形" xmlns="http://www.w3.org/2000/svg" xmlns:xlink="http://www.w3.org/1999/xlink" x="0px" y="0px" width="1024px" height="1024px" viewBox="0 0 1024 1024" enable-background="new 0 0 1024 1024" xml:space="preserve">
  <path class="svgpath" data-index="path_0" fill="#ffffff" d="M512 0C492.8 0 480 12.8 480 32l0 198.4C480 243.2 492.8 256 512 256c19.2 0 32-12.8 32-32L544 32C544 12.8 531.2 0 512 0zM512 768c-19.2 0-32 12.8-32 32l0 198.4C480 1011.2 492.8 1024 512 1024c19.2 0 32-12.8 32-32l0-198.4C544 780.8 531.2 768 512 768zM640 294.4c12.8 6.4 32 6.4 44.8-12.8l96-166.4c6.4-12.8 6.4-32-12.8-44.8S736 64 723.2 76.8L627.2 249.6C620.8 262.4 627.2 281.6 640 294.4zM384 729.6c-12.8-6.4-32-6.4-44.8 12.8l-96 166.4c-6.4 12.8-6.4 32 12.8 44.8 12.8 6.4 32 6.4 44.8-12.8l96-166.4C403.2 761.6 396.8 742.4 384 729.6zM729.6 384c6.4 12.8 25.6 19.2 44.8 12.8l166.4-96C960 288 966.4 268.8 953.6 256c-6.4-12.8-25.6-19.2-44.8-12.8l-166.4 96C729.6 352 723.2 371.2 729.6 384zM294.4 640C281.6 627.2 262.4 620.8 249.6 627.2l-166.4 96C64 736 57.6 755.2 70.4 768c6.4 12.8 25.6 19.2 44.8 12.8l166.4-96C294.4 672 300.8 652.8 294.4 640zM992 480l-198.4 0C780.8 480 768 492.8 768 512c0 19.2 12.8 32 32 32l198.4 0C1011.2 544 1024 531.2 1024 512 1024 492.8 1011.2 480 992 480zM256 512c0-19.2-12.8-32-32-32L32 480C12.8 480 0 492.8 0 512c0 19.2 12.8 32 32 32l198.4 0C243.2 544 256 531.2 256 512zM947.2 723.2l-166.4-96c-12.8-6.4-32-6.4-44.8 12.8-6.4 12.8-6.4 32 12.8 44.8l166.4 96c12.8 6.4 32 6.4 44.8-12.8C966.4 755.2 960 736 947.2 723.2zM76.8 300.8l166.4 96C262.4 403.2 281.6 396.8 294.4 384c6.4-12.8 6.4-32-12.8-44.8L108.8 243.2C96 236.8 76.8 243.2 70.4 256 57.6 268.8 64 288 76.8 300.8zM684.8 742.4c-6.4-12.8-25.6-19.2-44.8-12.8-12.8 6.4-19.2 25.6-12.8 44.8l96 166.4c6.4 12.8 25.6 19.2 44.8 12.8s19.2-25.6 12.8-44.8L684.8 742.4zM300.8 76.8C288 64 268.8 57.6 256 70.4 243.2 76.8 236.8 96 243.2 108.8l96 166.4C352 294.4 371.2 300.8 384 294.4c12.8-6.4 19.2-25.6 12.8-44.8L300.8 76.8z" />

</svg>
