<?xml version="1.0" encoding="utf-8"?>
<!-- Generator: Adobe Illustrator 21.0.2, SVG Export Plug-In . SVG Version: 6.00 Build 0)  -->
<svg version="1.1" id="图层_1" xmlns="http://www.w3.org/2000/svg" xmlns:xlink="http://www.w3.org/1999/xlink" x="0px" y="0px"
	 viewBox="0 0 1024 1024" style="enable-background:new 0 0 1024 1024;" xml:space="preserve">
<style type="text/css">
	.st0{fill:#E84619;}
</style>
<g>
	<g>
		<path class="st0" d="M966.5,478.2h-75.7c-7.1,0-12.9-5.1-12.9-11.3c0-6.2,5.8-11.3,12.9-11.3h75.7c7.1,0,12.9,5.1,12.9,11.3
			C979.4,473.1,973.6,478.2,966.5,478.2z"/>
		<path class="st0" d="M981.8,627.8c-3.1,0-6.2-1-8.7-3c-5.4-4.4-5.1-12.1,0.1-16.7c16.2-14.4,25.1-33.5,25.1-53.7v-116
			c0-2.5-2.3-4.6-5.2-4.6H864.3c-2.9,0-5.2,2.1-5.2,4.6v167.5c0,5.9-4.9,11.2-11.6,11.7c-7.7,0.6-14.1-4.6-14.1-11.3V422.5
			c0-6.2,5.8-11.3,12.9-11.3h165c7.1,0,12.9,5.1,12.9,11.3v131.9c0,26.5-11.7,51.4-33.1,70.1C988.4,626.7,985.1,627.8,981.8,627.8z"
			/>
		<path class="st0" d="M928.6,578.7c-27.1,0-49.2-19.4-49.2-43.2c0-23.8,22.1-43.2,49.2-43.2c27.1,0,49.2,19.4,49.2,43.2
			C977.8,559.3,955.8,578.7,928.6,578.7z M928.6,514.9c-12.9,0-23.4,9.2-23.4,20.6s10.5,20.6,23.4,20.6s23.4-9.2,23.4-20.6
			S941.6,514.9,928.6,514.9z"/>
	</g>
	<g>
		<path class="st0" d="M587.5,592.5c-1.6,0-3.2-0.3-4.8-0.8c-6.6-2.3-9.8-8.9-7.2-14.7c24.9-54.8,25.2-94.5,25.2-94.9
			c0-6.2,5.8-11.3,12.9-11.3c0,0,0,0,0,0c7.1,0,12.9,5.1,12.9,11.3c0,1.8-0.3,44.5-27,103.3C597.5,589.8,592.6,592.5,587.5,592.5z"
			/>
		<path class="st0" d="M689.6,577.9c-6.5,0-12-4.3-12.8-10c-6.8-51.9-18.1-70.7-18.2-70.9c-3.4-5.4-1.1-12.3,5-15.3
			c6.2-3,13.9-1.2,17.4,4.2c1.4,2.2,14,22.8,21.4,79.4c0.8,6.2-4.3,11.8-11.3,12.5C690.6,577.8,690.1,577.9,689.6,577.9z"/>
		<path class="st0" d="M794.6,520c-3.3,0-6.5-1.1-9-3.3L747,483.3c-5.1-4.4-5.1-11.5-0.1-16c5-4.4,13.2-4.5,18.2-0.1l38.6,33.4
			c5.1,4.4,5.1,11.5,0.1,16C801.3,518.8,798,520,794.6,520z"/>
		<path class="st0" d="M758,556.7c-3.2,0-6.5-1.1-9-3.2l-35.3-30.1c-5.1-4.4-5.2-11.5-0.2-16c5-4.5,13.1-4.6,18.2-0.2l35.3,30.1
			c5.1,4.4,5.2,11.5,0.2,16C764.7,555.6,761.4,556.7,758,556.7z"/>
		<path class="st0" d="M794.6,617.7h-73.7c-7.1,0-12.9-5.1-12.9-11.3V422.5c0-6.2,5.8-11.3,12.9-11.3h73.7c7.1,0,12.9,5.1,12.9,11.3
			v183.9C807.5,612.6,801.8,617.7,794.6,617.7z M739,595.1h37.5c2.9,0,5.2-2.1,5.2-4.6V438.4c0-2.5-2.3-4.6-5.2-4.6H739
			c-2.9,0-5.2,2.1-5.2,4.6v152.1C733.8,593,736.2,595.1,739,595.1z"/>
		<path class="st0" d="M687.6,451.4h-93.3c-7.1,0-12.9-5.1-12.9-11.3c0-6.2,5.8-11.3,12.9-11.3h93.3c7.1,0,12.9,5.1,12.9,11.3
			C700.4,446.4,694.7,451.4,687.6,451.4z"/>
		<path class="st0" d="M645.5,617.7c-7.1,0-12.9-5.1-12.9-11.3V416.5c0-6.2,5.8-11.3,12.9-11.3s12.9,5.1,12.9,11.3v189.9
			C658.4,612.6,652.6,617.7,645.5,617.7z"/>
	</g>
	<g>
		<path class="st0" d="M426.7,485.6c-4.5,0.1-8.9-1.9-11.3-5.5c-5.4-8-7.9-8.8-10.7-11.5c-3-3-7.1-10.6-2.9-15.7
			c4.1-5.1,12.2-6.3,18-2.7c0.9,0.6,9.5,6.1,17.7,18.3c3.6,5.4,1.6,12.3-4.5,15.5C431,485.1,428.8,485.6,426.7,485.6z"/>
		<path class="st0" d="M400.3,516c-4.5,0.1-8.9-1.9-11.3-5.5c-5.4-8-7.9-8.8-10.7-11.5c-3-3-7.1-10.6-2.9-15.7
			c4.1-5.1,12.2-6.3,18-2.7c0.9,0.6,9.5,6.1,17.7,18.3c3.6,5.4,1.6,12.3-4.5,15.5C404.6,515.4,402.4,516,400.3,516z"/>
		<path class="st0" d="M558.6,550.5H366.1c-7.1,0-12.9-5.1-12.9-11.3s5.8-11.3,12.9-11.3h192.5c7.1,0,12.9,5.1,12.9,11.3
			S565.7,550.5,558.6,550.5z"/>
		<path class="st0" d="M535.7,622.2c-7.1,0-12.9-5.1-12.9-11.3c0-17.5-21.6-27.1-21.8-27.2c-6.4-2.7-9.1-9.5-6-15.1
			c3.1-5.6,10.8-8,17.2-5.3c1.5,0.6,36.5,15.7,36.5,47.6C548.6,617.1,542.8,622.2,535.7,622.2z"/>
		<path class="st0" d="M531.7,463.4c-3,0-6-0.9-8.5-2.8c-4.6-3.5-5.4-9.5-2.6-14.2l3.8-5.8c1.9-3.1-0.6-6.8-4.6-6.8H379.7
			c-6.7,0-12.7-4.3-13.4-10.2c-0.7-6.7,5.3-12.4,12.8-12.4h170.6c3.2,0,6.4,0.9,8.8,2.7c4.8,3.6,5.8,9.4,3,14l-18.5,29.7
			C540.8,461.3,536.3,463.4,531.7,463.4z"/>
		<path class="st0" d="M384.5,620.6c-5.1-0.3-9.8-3.2-11.6-7.8c-2.3-5.9,1.3-12.3,8-14.3c55.5-16,67.3-71.1,68-74.4l19.4-57.1
			c0.8-6.2,7.2-10.6,14.3-9.7c7.1,0.8,12.1,6.5,11.3,12.7l-19.5,57.4c0,0.1,0,0.3-0.1,0.4c-0.5,2.9-13.6,71.7-85.1,92.3
			C387.7,620.5,386.1,620.7,384.5,620.6z"/>
	</g>
	<path class="st0" d="M152.2,359.8L152.2,359.8C68.5,359.8,0,428.3,0,512l0,0c0,83.7,68.5,152.2,152.2,152.2h0
		c83.7,0,152.2-68.5,152.2-152.2l0,0C304.5,428.3,236,359.8,152.2,359.8z M126.4,413.3c6.7-6.7,17.9-7.9,25.8-3
		c7.9-4.9,19.1-3.7,25.8,3c3.9,3.9,6.1,9.2,6.1,14.8c0,5.6-2.2,10.9-6.1,14.8l-22,22c-1,1-2.4,1.6-3.8,1.6c-1.4,0-2.8-0.6-3.8-1.6
		l-22-22c-3.9-3.9-6.1-9.2-6.1-14.8C120.3,422.5,122.5,417.2,126.4,413.3z M222.6,545.6c0,38.7-30.9,70.9-69.6,71.1
		c-0.3,0-0.5,0-0.8,0c-0.3,0-0.5,0-0.8,0c-38.7-0.2-69.6-32.5-69.6-71.1v-73.3c0-10.6,9.6-19,20.6-16.9c8.2,1.6,13.8,9.2,13.8,17.5
		v26.6c0,21.4,18.7,38.4,40.7,35.6c18.1-2.3,31.2-18.6,31.2-36.9V473c0-8.3,5.6-16,13.8-17.5c11-2.1,20.6,6.3,20.6,16.9V545.6z"/>
</g>
</svg>
